<svg viewBox="0 -41.99999999999999 244.8098663926002 100" xmlns="http://www.w3.org/2000/svg" xmlns:xlink="http://www.w3.org/1999/xlink" version="1.1" class="jsx-2263963463 artboard-inner" style="width: 161.575px; height: 66px; max-height: 100%;"><g transform="translate(-0.9249743062692704 18.842754367934226) scale(1.4274294849834417)" fill="#FFFFFF"><g id="line1"><path d="M19.512-4.176C19.080-4.176 18.240-3.360 16.992-1.728C16.464-1.056 15.852-0.612 15.156-0.396C14.460-0.180 14.112-0.480 14.112-1.296C14.112-2.976 16.128-7.464 20.160-14.760C28.656-15.672 34.296-16.584 37.080-17.496C38.232-17.880 38.784-18.216 38.736-18.504C38.688-18.600 38.580-18.696 38.412-18.792C38.244-18.888 38.052-18.948 37.836-18.972C37.620-18.996 37.128-19.008 36.360-19.008C35.592-19.008 32.328-18.648 26.568-17.928C24.840-17.640 23.184-17.424 21.600-17.280C27.312-27.072 31.800-31.968 35.064-31.968C35.352-31.968 35.664-31.848 36.000-31.608C36.144-32.568 35.664-33.348 34.560-33.948C33.456-34.548 32.520-34.848 31.752-34.848C30.024-34.848 28.116-33.768 26.028-31.608C23.940-29.448 22.752-27.672 22.464-26.280C22.608-26.040 22.680-25.692 22.680-25.236C22.680-24.780 22.272-23.784 21.456-22.248C20.640-20.712 19.728-19.032 18.720-17.208L18.504-17.208C18.408-17.208 18.168-17.436 17.784-17.892C17.400-18.348 16.932-18.576 16.380-18.576C15.828-18.576 15.048-18.336 14.040-17.856C13.032-17.376 12.528-16.848 12.528-16.272C12.528-15.696 12.732-15.228 13.140-14.868C13.548-14.508 14.052-14.328 14.652-14.328C15.252-14.328 16.128-14.400 17.280-14.544C13.008-6.288 10.872-0.984 10.872 1.368C10.872 1.560 10.884 1.752 10.908 1.944C10.932 2.136 11.316 2.316 12.060 2.484C12.804 2.652 13.356 2.736 13.716 2.736C14.076 2.736 14.556 2.568 15.156 2.232C15.756 1.896 16.704 0.744 18.000-1.224L18.720-2.304C19.392-2.976 19.728-3.456 19.728-3.744C19.728-4.032 19.656-4.176 19.512-4.176ZM47.664-38.448C45.168-38.544 41.400-39.000 36.360-39.816C31.320-40.632 27.072-41.040 23.616-41.040C17.328-41.040 12.000-39.912 7.632-37.656C3.984-35.784 1.800-33.144 1.080-29.736C1.032-29.496 1.008-29.112 1.008-28.584C0.768-27.960 0.648-27.204 0.648-26.316C0.648-25.428 1.212-24.324 2.340-23.004C3.468-21.684 4.848-20.784 6.480-20.304C6.672-20.256 6.852-20.232 7.020-20.232C7.188-20.232 7.356-20.304 7.524-20.448C7.692-20.592 7.644-20.772 7.380-20.988C7.116-21.204 6.588-21.552 5.796-22.032C5.004-22.512 4.416-22.920 4.032-23.256C3.648-23.592 3.324-24.048 3.060-24.624C2.796-25.200 2.664-25.692 2.664-26.100C2.664-26.508 2.712-26.856 2.808-27.144C3.432-30.024 5.388-32.412 8.676-34.308C11.964-36.204 15.888-37.464 20.448-38.088C21.648-38.376 23.352-38.520 25.560-38.520C27.768-38.520 31.044-38.328 35.388-37.944C39.732-37.560 42.636-37.368 44.100-37.368L46.800-37.368C46.656-37.224 46.476-36.972 46.260-36.612C46.044-36.252 45.888-36.000 45.792-35.856C45.024-34.416 44.640-32.616 44.640-30.456C44.640-28.824 44.856-27.864 45.288-27.576C45.624-27.144 45.984-26.988 46.368-27.108C46.752-27.228 46.788-27.528 46.476-28.008C46.164-28.488 46.008-29.088 46.008-29.808C46.008-31.440 47.160-33.384 49.464-35.640C49.944-36.120 50.592-36.660 51.408-37.260C52.224-37.860 52.776-38.304 53.064-38.592C53.352-38.880 53.496-39.168 53.496-39.456C53.496-39.744 53.328-40.032 52.992-40.320C52.656-40.608 52.200-40.752 51.624-40.752C50.376-40.752 49.056-39.984 47.664-38.448Z"></path><path d="M50.544 1.800C52.560 1.800 54.432 1.128 56.160-0.216C57.936-1.464 59.760-3.096 61.632-5.112C63.504-7.128 64.800-8.784 65.520-10.080C65.616-10.224 65.664-10.356 65.664-10.476C65.664-10.596 65.532-10.716 65.268-10.836C65.004-10.956 64.776-10.896 64.584-10.656C63.240-8.736 61.464-6.780 59.256-4.788C57.048-2.796 55.476-1.536 54.540-1.008C53.604-0.480 52.968-0.216 52.632-0.216C51.624-0.216 51.120-0.912 51.120-2.304C51.120-2.976 51.288-3.768 51.624-4.680C53.064-8.472 55.224-12.048 58.104-15.408C59.448-16.944 60.288-18.168 60.624-19.080C60.816-19.608 60.720-19.980 60.336-20.196C59.952-20.412 59.352-20.520 58.536-20.520L56.016-20.448C54.480-20.448 52.632-20.520 50.472-20.664L53.280-25.128C54.240-26.856 54.432-27.720 53.856-27.720C53.568-27.720 53.304-27.672 53.064-27.576C52.824-27.480 52.248-27.216 51.336-26.784C50.424-26.352 49.356-25.512 48.132-24.264C46.908-23.016 46.176-22.020 45.936-21.276C45.696-20.532 45.720-20.004 46.008-19.692C46.296-19.380 46.728-19.176 47.304-19.080C45.432-15.480 43.200-12.096 40.608-8.928C40.320-8.544 40.176-8.256 40.176-8.064C40.176-7.872 40.296-7.704 40.536-7.560C40.776-7.416 41.232-7.776 41.904-8.640C42.576-9.504 45.072-12.984 49.392-19.080C50.256-19.080 51.384-18.948 52.776-18.684C54.168-18.420 54.960-18.000 55.152-17.424L55.368-16.776C55.416-16.536 55.104-15.960 54.432-15.048L53.928-14.328C53.784-14.136 53.544-13.872 53.208-13.536C48.984-9.216 46.872-5.580 46.872-2.628C46.872 0.324 48.096 1.800 50.544 1.800Z"></path><path d="M70.632-19.944L70.128-19.944C69.408-19.800 68.568-18.384 67.608-15.696C67.416-15.312 67.368-15.000 67.464-14.760C66.120-12.744 64.272-10.272 61.920-7.344C61.728-7.104 61.632-6.900 61.632-6.732C61.632-6.564 61.656-6.432 61.704-6.336C61.944-5.856 62.280-5.856 62.712-6.336C64.344-8.208 65.280-9.408 65.520-9.936C63.984-6.528 63.216-3.984 63.216-2.304C63.216-1.824 63.264-1.416 63.360-1.080C63.984 0.744 65.256 1.656 67.176 1.656C67.992 1.656 69.000 1.440 70.200 1.008C72.264 0.240 74.832-1.800 77.904-5.112C79.776-7.128 81.072-8.784 81.792-10.080C81.888-10.224 81.936-10.356 81.936-10.476C81.936-10.596 81.816-10.716 81.576-10.836C81.336-10.956 81.120-10.896 80.928-10.656C79.536-8.736 77.724-6.768 75.492-4.752C73.260-2.736 71.520-1.392 70.272-0.720C69.024-0.048 68.064-0.096 67.392-0.864C67.008-1.296 66.816-1.848 66.816-2.520C66.816-3.192 66.840-3.744 66.888-4.176C67.032-5.664 68.472-9.144 71.208-14.616C71.448-15.048 71.688-15.504 71.928-15.984C71.976-16.128 72.048-16.320 72.144-16.560C72.240-16.800 72.396-17.124 72.612-17.532C72.828-17.940 72.888-18.360 72.792-18.792C72.552-19.560 71.832-19.944 70.632-19.944ZM76.320-29.520C76.320-29.712 76.224-29.808 76.032-29.808C75.840-29.808 75.360-29.472 74.592-28.800L73.368-27.864C71.304-26.280 70.272-25.392 70.272-25.200C70.272-24.192 71.304-23.688 73.368-23.688C73.704-23.688 74.184-24.168 74.808-25.128C75.432-26.088 75.744-26.784 75.744-27.216Z"></path><path d="M89.856-18.000C87.552-16.656 85.332-15.036 83.196-13.140C81.060-11.244 79.512-9.288 78.552-7.272C78.120-6.408 77.904-5.496 77.904-4.536C77.904-3.576 78.216-2.676 78.840-1.836C79.464-0.996 80.220-0.348 81.108 0.108C81.996 0.564 82.824 0.792 83.592 0.792C86.808 0.792 92.256-3.672 99.936-12.600C99.072-10.392 98.112-7.608 97.056-4.248C96.288-1.800 95.904 0.864 95.904 3.744C95.904 6.720 97.056 8.400 99.360 8.784C99.696 8.832 100.380 8.856 101.412 8.856C102.444 8.856 103.344 8.592 104.112 8.064C104.448 7.728 104.808 7.320 105.192 6.840C105.384 6.408 105.408 6.144 105.264 6.048C105.120 5.952 104.892 5.988 104.580 6.156C104.268 6.324 104.004 6.504 103.788 6.696C103.572 6.888 103.260 7.116 102.852 7.380C102.444 7.644 101.952 7.716 101.376 7.596C100.800 7.476 100.368 7.104 100.080 6.480C99.504 5.520 99.216 4.224 99.216 2.592C99.216 0.960 99.648-1.512 100.512-4.824C101.376-8.136 102.576-11.568 104.112-15.120C104.544-15.504 106.776-17.316 110.808-20.556C114.840-23.796 117.936-26.520 120.096-28.728C122.256-30.936 123.852-32.964 124.884-34.812C125.916-36.660 126.432-38.184 126.432-39.384C126.432-39.816 126.264-40.320 125.928-40.896C125.208-42.048 123.840-42.624 121.824-42.624C115.824-42.624 109.536-34.992 102.960-19.728C101.808-20.592 100.584-21.024 99.288-21.024C97.992-21.024 96.672-20.856 95.328-20.520C93.984-20.184 92.160-19.344 89.856-18.000ZM102.384-18.576L101.376-16.128C97.200-11.664 92.448-7.248 87.120-2.880C85.056-1.248 83.520-0.432 82.512-0.432C81.504-0.432 81.000-1.320 81.000-3.096C81.000-4.008 81.636-5.460 82.908-7.452C84.180-9.444 85.656-11.232 87.336-12.816C89.352-14.592 91.500-16.068 93.780-17.244C96.060-18.420 97.920-19.008 99.360-19.008C100.800-19.008 101.808-18.864 102.384-18.576ZM123.480-36.720C121.944-33.840 119.472-30.720 116.064-27.360C112.656-24.000 109.392-21.312 106.272-19.296C110.544-28.752 115.320-35.496 120.600-39.528C121.752-40.392 122.676-40.824 123.372-40.824C124.068-40.824 124.416-40.428 124.416-39.636C124.416-38.844 124.104-37.872 123.480-36.720Z"></path><path d="M110.592 0.792C112.272 0.792 114.156-0.048 116.244-1.728C118.332-3.408 120.168-5.160 121.752-6.984C123.336-8.808 124.224-9.768 124.416-9.864C123.504-7.464 123.048-5.184 123.048-3.024C123.048-2.304 123.120-1.656 123.264-1.080C123.888 0.744 125.112 1.656 126.936 1.656C128.856 1.656 130.944 0.816 133.200-0.864C134.400-1.728 136.140-3.372 138.420-5.796C140.700-8.220 141.840-9.792 141.840-10.512C141.840-10.608 141.720-10.716 141.480-10.836C141.240-10.956 141.024-10.896 140.832-10.656C139.488-8.736 137.700-6.768 135.468-4.752C133.236-2.736 131.496-1.392 130.248-0.720C129.000-0.048 128.016-0.096 127.296-0.864C126.912-1.296 126.720-1.848 126.720-2.520C126.720-3.192 126.744-3.744 126.792-4.176C127.224-7.680 128.664-11.160 131.112-14.616C131.400-15.096 131.136-15.504 130.320-15.840C129.504-16.176 128.808-16.344 128.232-16.344C127.896-16.344 125.520-13.968 121.104-9.216C119.856-7.872 117.528-5.760 114.120-2.880C112.056-1.248 110.520-0.432 109.512-0.432C108.504-0.432 108.000-1.320 108.000-3.096C108.000-4.008 108.636-5.460 109.908-7.452C111.180-9.444 112.656-11.232 114.336-12.816C116.352-14.592 118.500-16.068 120.780-17.244C123.060-18.420 125.100-19.008 126.900-19.008C128.700-19.008 129.888-18.552 130.464-17.640C130.656-17.544 130.776-17.520 130.824-17.568C130.872-17.616 130.896-17.760 130.896-18.000C130.896-18.720 130.440-19.404 129.528-20.052C128.616-20.700 127.524-21.024 126.252-21.024C124.980-21.024 123.672-20.856 122.328-20.520C120.984-20.184 119.160-19.344 116.856-18.000C114.552-16.656 112.332-15.036 110.196-13.140C108.060-11.244 106.512-9.288 105.552-7.272C105.120-6.408 104.904-5.496 104.904-4.536C104.904-3.576 105.216-2.676 105.840-1.836C106.464-0.996 107.220-0.348 108.108 0.108C108.996 0.564 109.824 0.792 110.592 0.792Z"></path><path d="M137.952 27.432C141.456 27.432 145.008 24.768 148.608 19.440C150.000 17.280 152.736 12.000 156.816 3.600C158.736 2.544 161.328 0.528 164.592-2.448C167.856-5.424 170.232-7.896 171.720-9.864C172.008-10.248 172.152-10.548 172.152-10.764C172.152-10.980 172.128-11.136 172.080-11.232C171.936-11.712 171.624-11.664 171.144-11.088C169.224-8.688 166.884-6.324 164.124-3.996C161.364-1.668 159.408-0.192 158.256 0.432C159.312-1.824 161.004-5.556 163.332-10.764C165.660-15.972 166.884-18.696 167.004-18.936C167.124-19.176 166.776-19.512 165.960-19.944C165.144-20.376 164.352-20.592 163.584-20.592C162.960-20.592 162.348-20.208 161.748-19.440C161.148-18.672 159.900-17.064 158.004-14.616C156.108-12.168 154.416-10.068 152.928-8.316C151.440-6.564 149.880-4.896 148.248-3.312C146.616-1.728 145.056-0.936 143.568-0.936C143.136-0.936 142.716-1.092 142.308-1.404C141.900-1.716 141.696-2.124 141.696-2.628C141.696-3.132 141.720-3.552 141.768-3.888C142.248-6.384 143.112-8.448 144.360-10.080C146.712-13.104 148.800-15.144 150.624-16.200C150.864-16.680 150.672-17.256 150.048-17.928C149.472-18.360 148.836-18.576 148.140-18.576C147.444-18.576 146.640-18.144 145.728-17.280C143.280-15.168 141.336-12.648 139.896-9.720C138.936-7.944 138.456-6.168 138.456-4.392C138.456-3.864 138.504-3.216 138.600-2.448C138.696-1.680 139.164-0.948 140.004-0.252C140.844 0.444 142.032 0.792 143.568 0.792C145.104 0.792 146.784 0.096 148.608-1.296C150.432-2.688 151.992-4.164 153.288-5.724C154.584-7.284 156.072-9.180 157.752-11.412C159.432-13.644 160.560-15.096 161.136-15.768C159.936-12.072 157.080-5.616 152.568 3.600C144.456 8.976 139.140 13.128 136.620 16.056C134.100 18.984 132.840 21.420 132.840 23.364C132.840 25.308 134.064 26.592 136.512 27.216C137.088 27.360 137.568 27.432 137.952 27.432ZM151.200 6.336C150.816 7.104 150.096 8.628 149.040 10.908C147.984 13.188 147.156 14.916 146.556 16.092C145.956 17.268 145.080 18.672 143.928 20.304C142.776 21.936 141.576 23.244 140.328 24.228C139.080 25.212 137.976 25.704 137.016 25.704C135.768 25.704 135.144 24.804 135.144 23.004C135.144 21.204 136.380 19.056 138.852 16.560C141.324 14.064 145.440 10.656 151.200 6.336Z"></path></g></g></svg>