<svg viewBox="0 -42.99999999999999 327.3381294964028 100" xmlns="http://www.w3.org/2000/svg" xmlns:xlink="http://www.w3.org/1999/xlink" version="1.1" class="jsx-2263963463 artboard-inner" style="width: 225.863px; height: 69px; max-height: 100%;"><g transform="translate(0.9249743062692704 17.842754367934226) scale(1.4274294849834417)" fill="#FFFFFF"><g id="line1"><path d="M15.264-5.832C16.800-8.712 18.552-12.288 20.520-16.560C21.960-19.824 22.896-22.080 23.328-23.328C31.920-31.200 37.848-35.136 41.112-35.136C44.616-35.136 46.368-31.080 46.368-22.968C46.368-20.664 46.092-17.712 45.540-14.112C44.988-10.512 44.088-7.128 42.840-3.960C42.792-3.864 42.768-3.660 42.768-3.348C42.768-3.036 42.984-2.532 43.416-1.836C43.848-1.140 44.256-0.792 44.640-0.792C45.024-0.792 45.408-1.200 45.792-2.016C47.664-5.904 50.916-11.256 55.548-18.072C60.180-24.888 64.344-29.880 68.040-33.048C69.048-33.912 69.792-34.344 70.272-34.344C70.752-34.344 71.136-34.236 71.424-34.020C71.712-33.804 71.856-33.420 71.856-32.868C71.856-32.316 71.712-31.656 71.424-30.888C71.136-30.120 70.368-28.176 69.120-25.056C68.736-24.192 68.256-22.956 67.680-21.348C67.104-19.740 66.636-18.336 66.276-17.136C65.916-15.936 65.448-14.232 64.872-12.024C64.296-9.816 64.008-7.536 64.008-5.184C64.008-0.672 65.592 1.608 68.760 1.656C69.672 1.656 70.608 1.488 71.568 1.152C73.536 0.528 76.128-1.488 79.344-4.896C81.312-6.912 82.752-8.640 83.664-10.080C83.760-10.176 83.808-10.284 83.808-10.404C83.808-10.524 83.700-10.680 83.484-10.872C83.268-11.064 83.040-10.992 82.800-10.656C80.880-8.064 78.336-5.448 75.168-2.808C73.104-1.224 71.448-0.432 70.200-0.432C68.472-0.432 67.608-1.992 67.608-5.112C67.608-9.144 68.880-14.328 71.424-20.664C73.488-25.848 74.724-29.256 75.132-30.888C75.540-32.520 75.744-33.792 75.744-34.704C75.744-35.616 75.456-36.456 74.880-37.224C74.304-37.992 73.464-38.376 72.360-38.376C70.488-38.376 68.616-37.392 66.744-35.424C61.032-29.232 55.416-21.504 49.896-12.240C48.360-9.696 47.388-8.112 46.980-7.488C46.572-6.864 46.272-6.396 46.080-6.084C45.888-5.772 45.756-5.628 45.684-5.652C45.612-5.676 45.792-6.384 46.224-7.776C48.816-15.648 50.112-21.696 50.112-25.920C50.112-28.752 49.488-31.224 48.240-33.336C46.800-35.832 44.184-37.080 40.392-37.080L39.384-37.080C36.552-36.936 31.872-34.104 25.344-28.584L30.312-40.896C30.360-41.472 29.640-41.772 28.152-41.796C26.664-41.820 25.824-41.520 25.632-40.896C24.528-38.352 22.884-36.096 20.700-34.128C18.516-32.160 16.392-31.080 14.328-30.888L14.040-30.816C13.608-30.720 13.404-30.504 13.428-30.168C13.452-29.832 13.704-29.688 14.184-29.736C18.024-30.120 21.144-31.440 23.544-33.696L20.808-24.408C17.928-21.768 14.412-18.204 10.260-13.716C6.108-9.228 3.048-5.448 1.080-2.376C-0.072-0.552-0.648 1.104-0.648 2.592C-0.648 5.088 0.576 6.336 3.024 6.336C6.864 6.336 10.944 2.280 15.264-5.832ZM3.240 3.888C2.328 3.888 1.872 3.276 1.872 2.052C1.872 0.828 2.712-0.912 4.392-3.168C5.688-4.896 7.872-7.500 10.944-10.980C14.016-14.460 16.824-17.400 19.368-19.800C18.312-16.920 16.584-13.176 14.184-8.568C9.864-0.264 6.216 3.888 3.240 3.888Z"></path><path d="M96.696-7.920C96.072-8.112 95.568-7.968 95.184-7.488C94.800-7.008 94.704-6.384 94.896-5.616L95.112-5.184C94.008-3.552 92.760-2.208 91.368-1.152C89.976-0.096 88.692 0.432 87.516 0.432C86.340 0.432 85.536 0.012 85.104-0.828C84.672-1.668 84.456-2.412 84.456-3.060C84.456-3.708 84.504-4.296 84.600-4.824C85.128-7.944 86.712-11.040 89.352-14.112C91.992-17.184 94.152-18.720 95.832-18.720C96.792-18.720 97.272-18.288 97.272-17.424C97.272-16.800 97.392-16.440 97.632-16.344C98.208-16.344 98.496-16.896 98.496-18.000C98.496-19.344 97.776-20.256 96.336-20.736C95.856-20.880 95.352-20.952 94.824-20.952C92.712-20.952 90.480-19.920 88.128-17.856C86.640-16.560 85.344-15.048 84.240-13.320C82.320-10.392 81.360-7.512 81.360-4.680C81.360-2.088 82.200-0.288 83.880 0.720C84.744 1.344 85.824 1.656 87.120 1.656C89.424 1.656 91.512 0.864 93.384-0.720C94.296-1.584 95.232-2.520 96.192-3.528C96.768-2.328 97.752-1.728 99.144-1.728C101.256-1.728 103.680-3.408 106.416-6.768C108.144-8.784 109.008-10.032 109.008-10.512C109.008-10.608 108.888-10.716 108.648-10.836C108.408-10.956 108.132-10.800 107.820-10.368C107.508-9.936 106.728-9.000 105.480-7.560C102.840-4.776 100.872-3.384 99.576-3.384C98.280-3.384 97.608-4.032 97.560-5.328C99.816-8.448 100.944-10.968 100.944-12.888C100.944-14.808 100.464-15.888 99.504-16.128C98.880-16.224 98.364-16.080 97.956-15.696C97.548-15.312 97.452-14.844 97.668-14.292C97.884-13.740 97.992-12.984 97.992-12.024C97.992-11.064 97.560-9.696 96.696-7.920Z"></path><path d="M127.080-20.448C125.928-20.448 124.440-19.800 122.616-18.504C120.792-17.064 118.560-14.964 115.920-12.204C113.280-9.444 111.096-7.008 109.368-4.896C111.864-11.520 113.376-15.396 113.904-16.524C114.432-17.652 114.696-18.384 114.696-18.720C114.696-19.200 114.360-19.500 113.688-19.620C113.016-19.740 112.464-19.788 112.032-19.764C111.600-19.740 111.252-19.548 110.988-19.188C110.724-18.828 110.544-18.504 110.448-18.216C110.352-17.928 110.268-17.580 110.196-17.172C110.124-16.764 109.980-16.272 109.764-15.696C109.548-15.120 108.948-13.428 107.964-10.620C106.980-7.812 106.068-5.232 105.228-2.880C104.388-0.528 103.920 0.780 103.824 1.044C103.728 1.308 103.680 1.512 103.680 1.656C103.680 1.800 103.896 1.872 104.328 1.872C104.760 1.872 105.840 1.440 107.568 0.576C107.952 0.336 109.596-1.716 112.500-5.580C115.404-9.444 117.600-12.072 119.088-13.464C121.248-15.336 122.712-16.272 123.480-16.272C123.864-16.272 124.056-16.092 124.056-15.732C124.056-15.372 123.732-14.616 123.084-13.464C122.436-12.312 121.680-10.704 120.816-8.640C120.288-7.344 119.928-6.204 119.736-5.220C119.544-4.236 119.448-3.216 119.448-2.160C119.448-1.104 119.784-0.228 120.456 0.468C121.128 1.164 122.280 1.536 123.912 1.584C125.592 1.584 127.296 0.972 129.024-0.252C130.752-1.476 132.552-3.096 134.424-5.112C136.296-7.128 137.592-8.784 138.312-10.080C138.408-10.224 138.456-10.356 138.456-10.476C138.456-10.596 138.324-10.716 138.060-10.836C137.796-10.956 137.568-10.896 137.376-10.656C136.032-8.736 134.244-6.780 132.012-4.788C129.780-2.796 128.040-1.452 126.792-0.756C125.544-0.060 124.560-0.096 123.840-0.864C123.456-1.296 123.264-2.172 123.264-3.492C123.264-4.812 123.720-6.576 124.632-8.784C125.160-10.080 125.976-11.760 127.080-13.824C128.184-15.888 128.736-17.508 128.736-18.684C128.736-19.860 128.184-20.448 127.080-20.448Z"></path><path d="M146.376-18.000C144.072-16.656 141.852-15.036 139.716-13.140C137.580-11.244 136.032-9.288 135.072-7.272C134.640-6.408 134.424-5.496 134.424-4.536C134.424-3.576 134.736-2.676 135.360-1.836C135.984-0.996 136.740-0.348 137.628 0.108C138.516 0.564 139.344 0.792 140.112 0.792C143.328 0.792 148.776-3.672 156.456-12.600C155.592-10.392 154.632-7.608 153.576-4.248C152.808-1.800 152.424 0.864 152.424 3.744C152.424 6.720 153.576 8.400 155.880 8.784C156.216 8.832 156.900 8.856 157.932 8.856C158.964 8.856 159.864 8.592 160.632 8.064C160.968 7.728 161.328 7.320 161.712 6.840C161.904 6.408 161.928 6.144 161.784 6.048C161.640 5.952 161.412 5.988 161.100 6.156C160.788 6.324 160.524 6.504 160.308 6.696C160.092 6.888 159.780 7.116 159.372 7.380C158.964 7.644 158.472 7.716 157.896 7.596C157.320 7.476 156.888 7.104 156.600 6.480C156.024 5.520 155.736 4.224 155.736 2.592C155.736 0.960 156.168-1.512 157.032-4.824C157.896-8.136 159.096-11.568 160.632-15.120C161.064-15.504 163.296-17.316 167.328-20.556C171.360-23.796 174.456-26.520 176.616-28.728C178.776-30.936 180.372-32.964 181.404-34.812C182.436-36.660 182.952-38.184 182.952-39.384C182.952-39.816 182.784-40.320 182.448-40.896C181.728-42.048 180.360-42.624 178.344-42.624C172.344-42.624 166.056-34.992 159.480-19.728C158.328-20.592 157.104-21.024 155.808-21.024C154.512-21.024 153.192-20.856 151.848-20.520C150.504-20.184 148.680-19.344 146.376-18.000ZM158.904-18.576L157.896-16.128C153.720-11.664 148.968-7.248 143.640-2.880C141.576-1.248 140.040-0.432 139.032-0.432C138.024-0.432 137.520-1.320 137.520-3.096C137.520-4.008 138.156-5.460 139.428-7.452C140.700-9.444 142.176-11.232 143.856-12.816C145.872-14.592 148.020-16.068 150.300-17.244C152.580-18.420 154.440-19.008 155.880-19.008C157.320-19.008 158.328-18.864 158.904-18.576ZM180-36.720C178.464-33.840 175.992-30.720 172.584-27.360C169.176-24.000 165.912-21.312 162.792-19.296C167.064-28.752 171.840-35.496 177.120-39.528C178.272-40.392 179.196-40.824 179.892-40.824C180.588-40.824 180.936-40.428 180.936-39.636C180.936-38.844 180.624-37.872 180-36.720Z"></path><path d="M167.112 0.792C168.792 0.792 170.676-0.048 172.764-1.728C174.852-3.408 176.688-5.160 178.272-6.984C179.856-8.808 180.744-9.768 180.936-9.864C180.024-7.464 179.568-5.184 179.568-3.024C179.568-2.304 179.640-1.656 179.784-1.080C180.408 0.744 181.632 1.656 183.456 1.656C185.376 1.656 187.464 0.816 189.720-0.864C190.920-1.728 192.660-3.372 194.940-5.796C197.220-8.220 198.360-9.792 198.360-10.512C198.360-10.608 198.240-10.716 198-10.836C197.760-10.956 197.544-10.896 197.352-10.656C196.008-8.736 194.220-6.768 191.988-4.752C189.756-2.736 188.016-1.392 186.768-0.720C185.520-0.048 184.536-0.096 183.816-0.864C183.432-1.296 183.240-1.848 183.240-2.520C183.240-3.192 183.264-3.744 183.312-4.176C183.744-7.680 185.184-11.160 187.632-14.616C187.920-15.096 187.656-15.504 186.840-15.840C186.024-16.176 185.328-16.344 184.752-16.344C184.416-16.344 182.040-13.968 177.624-9.216C176.376-7.872 174.048-5.760 170.640-2.880C168.576-1.248 167.040-0.432 166.032-0.432C165.024-0.432 164.520-1.320 164.520-3.096C164.520-4.008 165.156-5.460 166.428-7.452C167.700-9.444 169.176-11.232 170.856-12.816C172.872-14.592 175.020-16.068 177.300-17.244C179.580-18.420 181.620-19.008 183.420-19.008C185.220-19.008 186.408-18.552 186.984-17.640C187.176-17.544 187.296-17.520 187.344-17.568C187.392-17.616 187.416-17.760 187.416-18.000C187.416-18.720 186.960-19.404 186.048-20.052C185.136-20.700 184.044-21.024 182.772-21.024C181.500-21.024 180.192-20.856 178.848-20.520C177.504-20.184 175.680-19.344 173.376-18.000C171.072-16.656 168.852-15.036 166.716-13.140C164.580-11.244 163.032-9.288 162.072-7.272C161.640-6.408 161.424-5.496 161.424-4.536C161.424-3.576 161.736-2.676 162.360-1.836C162.984-0.996 163.740-0.348 164.628 0.108C165.516 0.564 166.344 0.792 167.112 0.792Z"></path><path d="M194.472 27.432C197.976 27.432 201.528 24.768 205.128 19.440C206.520 17.280 209.256 12.000 213.336 3.600C215.256 2.544 217.848 0.528 221.112-2.448C224.376-5.424 226.752-7.896 228.240-9.864C228.528-10.248 228.672-10.548 228.672-10.764C228.672-10.980 228.648-11.136 228.600-11.232C228.456-11.712 228.144-11.664 227.664-11.088C225.744-8.688 223.404-6.324 220.644-3.996C217.884-1.668 215.928-0.192 214.776 0.432C215.832-1.824 217.524-5.556 219.852-10.764C222.180-15.972 223.404-18.696 223.524-18.936C223.644-19.176 223.296-19.512 222.480-19.944C221.664-20.376 220.872-20.592 220.104-20.592C219.480-20.592 218.868-20.208 218.268-19.440C217.668-18.672 216.420-17.064 214.524-14.616C212.628-12.168 210.936-10.068 209.448-8.316C207.960-6.564 206.400-4.896 204.768-3.312C203.136-1.728 201.576-0.936 200.088-0.936C199.656-0.936 199.236-1.092 198.828-1.404C198.420-1.716 198.216-2.124 198.216-2.628C198.216-3.132 198.240-3.552 198.288-3.888C198.768-6.384 199.632-8.448 200.880-10.080C203.232-13.104 205.320-15.144 207.144-16.200C207.384-16.680 207.192-17.256 206.568-17.928C205.992-18.360 205.356-18.576 204.660-18.576C203.964-18.576 203.160-18.144 202.248-17.280C199.800-15.168 197.856-12.648 196.416-9.720C195.456-7.944 194.976-6.168 194.976-4.392C194.976-3.864 195.024-3.216 195.120-2.448C195.216-1.680 195.684-0.948 196.524-0.252C197.364 0.444 198.552 0.792 200.088 0.792C201.624 0.792 203.304 0.096 205.128-1.296C206.952-2.688 208.512-4.164 209.808-5.724C211.104-7.284 212.592-9.180 214.272-11.412C215.952-13.644 217.080-15.096 217.656-15.768C216.456-12.072 213.600-5.616 209.088 3.600C200.976 8.976 195.660 13.128 193.140 16.056C190.620 18.984 189.360 21.420 189.360 23.364C189.360 25.308 190.584 26.592 193.032 27.216C193.608 27.360 194.088 27.432 194.472 27.432ZM207.720 6.336C207.336 7.104 206.616 8.628 205.560 10.908C204.504 13.188 203.676 14.916 203.076 16.092C202.476 17.268 201.600 18.672 200.448 20.304C199.296 21.936 198.096 23.244 196.848 24.228C195.600 25.212 194.496 25.704 193.536 25.704C192.288 25.704 191.664 24.804 191.664 23.004C191.664 21.204 192.900 19.056 195.372 16.560C197.844 14.064 201.960 10.656 207.720 6.336Z"></path></g></g></svg>