<svg viewBox="0 -43.99999999999999 343.3710174717368 100" xmlns="http://www.w3.org/2000/svg" xmlns:xlink="http://www.w3.org/1999/xlink" version="1.1" class="jsx-2263963463 artboard-inner" style="width: 226.625px; height: 66px; max-height: 100%;"><g transform="translate(-1.438848920863309 16.84275436793422) scale(1.4274294849834415)" fill="#FFFFFF"><g id="line1"><path d="M46.440-38.016C46.440-40.656 43.800-41.976 38.520-41.976C34.728-41.976 30.096-40.944 24.624-38.880C22.080-37.920 19.908-36.636 18.108-35.028C16.308-33.420 15.408-31.788 15.408-30.132C15.408-28.476 16.164-27.060 17.676-25.884C19.188-24.708 21.024-23.760 23.184-23.040C28.800-21.168 33.168-19.512 36.288-18.072C38.976-16.824 40.320-15.096 40.320-12.888C40.320-12.120 39.936-11.184 39.168-10.080C37.248-7.056 32.448-4.272 24.768-1.728C21.216-0.576 17.616 0 13.968 0C10.320 0 7.848-0.528 6.552-1.584C5.256-2.640 4.608-3.840 4.608-5.184C4.608-7.344 5.808-9.504 8.208-11.664C10.032-13.344 12.000-14.628 14.112-15.516C16.224-16.404 17.952-16.860 19.296-16.884C20.640-16.908 21.360-17.088 21.456-17.424C21.552-17.760 21.096-17.928 20.088-17.928C15.864-17.928 11.832-16.608 7.992-13.968C3.336-10.992 1.008-7.368 1.008-3.096C1.008 1.176 4.800 3.312 12.384 3.312C16.224 3.312 20.832 2.244 26.208 0.108C31.584-2.028 35.952-4.704 39.312-7.920C41.520-10.128 42.624-12.168 42.624-14.040C42.624-15.912 41.796-17.616 40.140-19.152C38.484-20.688 36.732-21.876 34.884-22.716C33.036-23.556 30.612-24.540 27.612-25.668C24.612-26.796 22.608-27.600 21.600-28.080C19.728-28.992 18.792-29.952 18.792-30.960C18.792-32.208 20.328-33.672 23.400-35.352C26.040-36.792 28.776-37.836 31.608-38.484C34.440-39.132 36.720-39.456 38.448-39.456C42.528-39.456 44.568-38.424 44.568-36.360C44.568-35.400 43.776-34.176 42.192-32.688C41.664-32.160 41.400-31.872 41.400-31.824C41.400-31.248 41.844-31.200 42.732-31.680C43.620-32.160 44.424-33.048 45.144-34.344C46.008-35.736 46.440-36.960 46.440-38.016Z"></path><path d="M49.104 0.792C50.784 0.792 52.668-0.048 54.756-1.728C56.844-3.408 58.680-5.160 60.264-6.984C61.848-8.808 62.736-9.768 62.928-9.864C62.016-7.464 61.560-5.184 61.560-3.024C61.560-2.304 61.632-1.656 61.776-1.080C62.400 0.744 63.624 1.656 65.448 1.656C67.368 1.656 69.456 0.816 71.712-0.864C72.912-1.728 74.652-3.372 76.932-5.796C79.212-8.220 80.352-9.792 80.352-10.512C80.352-10.608 80.232-10.716 79.992-10.836C79.752-10.956 79.536-10.896 79.344-10.656C78.000-8.736 76.212-6.768 73.980-4.752C71.748-2.736 70.008-1.392 68.760-0.720C67.512-0.048 66.528-0.096 65.808-0.864C65.424-1.296 65.232-1.848 65.232-2.520C65.232-3.192 65.256-3.744 65.304-4.176C65.736-7.680 67.176-11.160 69.624-14.616C69.912-15.096 69.648-15.504 68.832-15.840C68.016-16.176 67.320-16.344 66.744-16.344C66.408-16.344 64.032-13.968 59.616-9.216C58.368-7.872 56.040-5.760 52.632-2.880C50.568-1.248 49.032-0.432 48.024-0.432C47.016-0.432 46.512-1.320 46.512-3.096C46.512-4.008 47.148-5.460 48.420-7.452C49.692-9.444 51.168-11.232 52.848-12.816C54.864-14.592 57.012-16.068 59.292-17.244C61.572-18.420 63.612-19.008 65.412-19.008C67.212-19.008 68.400-18.552 68.976-17.640C69.168-17.544 69.288-17.520 69.336-17.568C69.384-17.616 69.408-17.760 69.408-18.000C69.408-18.720 68.952-19.404 68.040-20.052C67.128-20.700 66.036-21.024 64.764-21.024C63.492-21.024 62.184-20.856 60.840-20.520C59.496-20.184 57.672-19.344 55.368-18.000C53.064-16.656 50.844-15.036 48.708-13.140C46.572-11.244 45.024-9.288 44.064-7.272C43.632-6.408 43.416-5.496 43.416-4.536C43.416-3.576 43.728-2.676 44.352-1.836C44.976-0.996 45.732-0.348 46.620 0.108C47.508 0.564 48.336 0.792 49.104 0.792Z"></path><path d="M89.928-20.160L88.992-20.088L92.448-26.136C92.592-26.424 92.856-26.688 93.240-26.928C93.624-27.168 93.984-27.564 94.320-28.116C94.656-28.668 94.824-29.172 94.824-29.628C94.824-30.084 94.752-30.408 94.608-30.600C94.272-31.128 93.636-31.392 92.700-31.392C91.764-31.392 91.200-31.248 91.008-30.960L90.720-30.672C90.624-30.576 90.504-30.408 90.360-30.168C90.216-29.928 90.084-29.700 89.964-29.484C89.844-29.268 89.664-28.956 89.424-28.548C89.184-28.140 88.968-27.744 88.776-27.360L85.176-20.664C85.032-20.664 84.936-20.616 84.888-20.520C82.680-20.424 81.408-19.992 81.072-19.224C80.880-18.792 80.904-18.420 81.144-18.108C81.384-17.796 81.756-17.640 82.260-17.640C82.764-17.640 83.256-17.688 83.736-17.784C82.680-15.816 82.152-14.808 82.152-14.760C80.808-12.744 78.960-10.272 76.608-7.344C76.416-7.104 76.320-6.900 76.320-6.732C76.320-6.564 76.344-6.432 76.392-6.336C76.632-5.856 76.968-5.856 77.400-6.336C79.032-8.208 79.968-9.408 80.208-9.936C78.672-6.528 77.904-3.984 77.904-2.304C77.904-1.824 77.952-1.416 78.048-1.080C78.672 0.744 79.944 1.656 81.864 1.656C82.680 1.656 83.688 1.440 84.888 1.008C86.952 0.240 89.520-1.800 92.592-5.112C95.808-8.568 97.056-10.464 96.336-10.800C96.048-10.944 95.808-10.896 95.616-10.656C94.224-8.736 92.412-6.768 90.180-4.752C87.948-2.736 86.208-1.392 84.960-0.720C83.712-0.048 82.752-0.096 82.080-0.864C81.696-1.296 81.504-1.848 81.504-2.520C81.504-3.192 81.528-3.744 81.576-4.176C81.720-5.664 83.160-9.144 85.896-14.616C85.944-14.856 86.328-15.552 87.048-16.704C87.384-17.280 87.672-17.784 87.912-18.216C92.280-18.696 95.028-19.092 96.156-19.404C97.284-19.716 97.848-20.016 97.848-20.304C97.848-20.544 97.452-20.664 96.660-20.664C95.868-20.664 93.624-20.496 89.928-20.160Z"></path><path d="M124.632-5.112C126.504-7.128 127.800-8.784 128.520-10.080C128.616-10.224 128.664-10.356 128.664-10.476C128.664-10.596 128.532-10.716 128.268-10.836C128.004-10.956 127.776-10.896 127.584-10.656C126.240-8.736 124.464-6.780 122.256-4.788C120.048-2.796 118.308-1.452 117.036-0.756C115.764-0.060 114.768-0.096 114.048-0.864C113.664-1.296 113.472-1.848 113.472-2.520C113.472-3.192 113.496-3.744 113.544-4.176C113.880-6.624 114.516-8.760 115.452-10.584C116.388-12.408 118.008-15.240 120.312-19.080C120.648-19.656 120.300-20.124 119.268-20.484C118.236-20.844 117.336-21.024 116.568-21.024C116.328-20.640 115.608-19.404 114.408-17.316C113.208-15.228 112.368-13.824 111.888-13.104C108.384-8.016 105.636-4.668 103.644-3.060C101.652-1.452 100.080-0.648 98.928-0.648C98.448-0.648 97.956-0.792 97.452-1.080C96.948-1.368 96.696-2.004 96.696-2.988C96.696-3.972 96.960-5.184 97.488-6.624C98.880-10.320 101.232-13.680 104.544-16.704C105.408-17.328 105.504-17.772 104.832-18.036C104.160-18.300 103.500-18.432 102.852-18.432C102.204-18.432 101.520-18.336 100.800-18.144C100.272-17.952 99.036-16.356 97.092-13.356C95.148-10.356 94.176-7.440 94.176-4.608C94.176-2.304 95.136-0.720 97.056 0.144C98.112 0.576 99.048 0.792 99.864 0.792C101.592 0.792 103.308-0.072 105.012-1.800C106.716-3.528 108.156-5.364 109.332-7.308C110.508-9.252 111.168-10.272 111.312-10.368C110.352-7.920 109.872-5.448 109.872-2.952C109.872-2.232 109.992-1.488 110.232-0.720C110.472 0.048 110.940 0.636 111.636 1.044C112.332 1.452 112.896 1.656 113.328 1.656C115.584 1.656 117.672 0.960 119.592-0.432C121.080-1.536 122.760-3.096 124.632-5.112Z"></path><path d="M136.224 1.800C138.240 1.800 140.112 1.128 141.840-0.216C143.616-1.464 145.440-3.096 147.312-5.112C149.184-7.128 150.480-8.784 151.200-10.080C151.296-10.224 151.344-10.356 151.344-10.476C151.344-10.596 151.212-10.716 150.948-10.836C150.684-10.956 150.456-10.896 150.264-10.656C148.920-8.736 147.144-6.780 144.936-4.788C142.728-2.796 141.156-1.536 140.220-1.008C139.284-0.480 138.648-0.216 138.312-0.216C137.304-0.216 136.800-0.912 136.800-2.304C136.800-2.976 136.968-3.768 137.304-4.680C138.744-8.472 140.904-12.048 143.784-15.408C145.128-16.944 145.968-18.168 146.304-19.080C146.496-19.608 146.400-19.980 146.016-20.196C145.632-20.412 145.032-20.520 144.216-20.520L141.696-20.448C140.160-20.448 138.312-20.520 136.152-20.664L138.960-25.128C139.920-26.856 140.112-27.720 139.536-27.720C139.248-27.720 138.984-27.672 138.744-27.576C138.504-27.480 137.928-27.216 137.016-26.784C136.104-26.352 135.036-25.512 133.812-24.264C132.588-23.016 131.856-22.020 131.616-21.276C131.376-20.532 131.400-20.004 131.688-19.692C131.976-19.380 132.408-19.176 132.984-19.080C131.112-15.480 128.880-12.096 126.288-8.928C126.000-8.544 125.856-8.256 125.856-8.064C125.856-7.872 125.976-7.704 126.216-7.560C126.456-7.416 126.912-7.776 127.584-8.640C128.256-9.504 130.752-12.984 135.072-19.080C135.936-19.080 137.064-18.948 138.456-18.684C139.848-18.420 140.640-18.000 140.832-17.424L141.048-16.776C141.096-16.536 140.784-15.960 140.112-15.048L139.608-14.328C139.464-14.136 139.224-13.872 138.888-13.536C134.664-9.216 132.552-5.580 132.552-2.628C132.552 0.324 133.776 1.800 136.224 1.800Z"></path><path d="M159.264-18.000C156.960-16.656 154.740-15.036 152.604-13.140C150.468-11.244 148.920-9.288 147.960-7.272C147.528-6.408 147.312-5.496 147.312-4.536C147.312-3.576 147.624-2.676 148.248-1.836C148.872-0.996 149.628-0.348 150.516 0.108C151.404 0.564 152.232 0.792 153 0.792C156.216 0.792 161.664-3.672 169.344-12.600C168.480-10.392 167.520-7.608 166.464-4.248C165.696-1.800 165.312 0.864 165.312 3.744C165.312 6.720 166.464 8.400 168.768 8.784C169.104 8.832 169.788 8.856 170.820 8.856C171.852 8.856 172.752 8.592 173.520 8.064C173.856 7.728 174.216 7.320 174.600 6.840C174.792 6.408 174.816 6.144 174.672 6.048C174.528 5.952 174.300 5.988 173.988 6.156C173.676 6.324 173.412 6.504 173.196 6.696C172.980 6.888 172.668 7.116 172.260 7.380C171.852 7.644 171.360 7.716 170.784 7.596C170.208 7.476 169.776 7.104 169.488 6.480C168.912 5.520 168.624 4.224 168.624 2.592C168.624 0.960 169.056-1.512 169.920-4.824C170.784-8.136 171.984-11.568 173.520-15.120C173.952-15.504 176.184-17.316 180.216-20.556C184.248-23.796 187.344-26.520 189.504-28.728C191.664-30.936 193.260-32.964 194.292-34.812C195.324-36.660 195.840-38.184 195.840-39.384C195.840-39.816 195.672-40.320 195.336-40.896C194.616-42.048 193.248-42.624 191.232-42.624C185.232-42.624 178.944-34.992 172.368-19.728C171.216-20.592 169.992-21.024 168.696-21.024C167.400-21.024 166.080-20.856 164.736-20.520C163.392-20.184 161.568-19.344 159.264-18.000ZM171.792-18.576L170.784-16.128C166.608-11.664 161.856-7.248 156.528-2.880C154.464-1.248 152.928-0.432 151.920-0.432C150.912-0.432 150.408-1.320 150.408-3.096C150.408-4.008 151.044-5.460 152.316-7.452C153.588-9.444 155.064-11.232 156.744-12.816C158.760-14.592 160.908-16.068 163.188-17.244C165.468-18.420 167.328-19.008 168.768-19.008C170.208-19.008 171.216-18.864 171.792-18.576ZM192.888-36.720C191.352-33.840 188.880-30.720 185.472-27.360C182.064-24.000 178.800-21.312 175.680-19.296C179.952-28.752 184.728-35.496 190.008-39.528C191.160-40.392 192.084-40.824 192.780-40.824C193.476-40.824 193.824-40.428 193.824-39.636C193.824-38.844 193.512-37.872 192.888-36.720Z"></path><path d="M180 0.792C181.680 0.792 183.564-0.048 185.652-1.728C187.740-3.408 189.576-5.160 191.160-6.984C192.744-8.808 193.632-9.768 193.824-9.864C192.912-7.464 192.456-5.184 192.456-3.024C192.456-2.304 192.528-1.656 192.672-1.080C193.296 0.744 194.520 1.656 196.344 1.656C198.264 1.656 200.352 0.816 202.608-0.864C203.808-1.728 205.548-3.372 207.828-5.796C210.108-8.220 211.248-9.792 211.248-10.512C211.248-10.608 211.128-10.716 210.888-10.836C210.648-10.956 210.432-10.896 210.240-10.656C208.896-8.736 207.108-6.768 204.876-4.752C202.644-2.736 200.904-1.392 199.656-0.720C198.408-0.048 197.424-0.096 196.704-0.864C196.320-1.296 196.128-1.848 196.128-2.520C196.128-3.192 196.152-3.744 196.200-4.176C196.632-7.680 198.072-11.160 200.520-14.616C200.808-15.096 200.544-15.504 199.728-15.840C198.912-16.176 198.216-16.344 197.640-16.344C197.304-16.344 194.928-13.968 190.512-9.216C189.264-7.872 186.936-5.760 183.528-2.880C181.464-1.248 179.928-0.432 178.920-0.432C177.912-0.432 177.408-1.320 177.408-3.096C177.408-4.008 178.044-5.460 179.316-7.452C180.588-9.444 182.064-11.232 183.744-12.816C185.760-14.592 187.908-16.068 190.188-17.244C192.468-18.420 194.508-19.008 196.308-19.008C198.108-19.008 199.296-18.552 199.872-17.640C200.064-17.544 200.184-17.520 200.232-17.568C200.280-17.616 200.304-17.760 200.304-18.000C200.304-18.720 199.848-19.404 198.936-20.052C198.024-20.700 196.932-21.024 195.660-21.024C194.388-21.024 193.080-20.856 191.736-20.520C190.392-20.184 188.568-19.344 186.264-18.000C183.960-16.656 181.740-15.036 179.604-13.140C177.468-11.244 175.920-9.288 174.960-7.272C174.528-6.408 174.312-5.496 174.312-4.536C174.312-3.576 174.624-2.676 175.248-1.836C175.872-0.996 176.628-0.348 177.516 0.108C178.404 0.564 179.232 0.792 180 0.792Z"></path><path d="M207.360 27.432C210.864 27.432 214.416 24.768 218.016 19.440C219.408 17.280 222.144 12.000 226.224 3.600C228.144 2.544 230.736 0.528 234-2.448C237.264-5.424 239.640-7.896 241.128-9.864C241.416-10.248 241.560-10.548 241.560-10.764C241.560-10.980 241.536-11.136 241.488-11.232C241.344-11.712 241.032-11.664 240.552-11.088C238.632-8.688 236.292-6.324 233.532-3.996C230.772-1.668 228.816-0.192 227.664 0.432C228.720-1.824 230.412-5.556 232.740-10.764C235.068-15.972 236.292-18.696 236.412-18.936C236.532-19.176 236.184-19.512 235.368-19.944C234.552-20.376 233.760-20.592 232.992-20.592C232.368-20.592 231.756-20.208 231.156-19.440C230.556-18.672 229.308-17.064 227.412-14.616C225.516-12.168 223.824-10.068 222.336-8.316C220.848-6.564 219.288-4.896 217.656-3.312C216.024-1.728 214.464-0.936 212.976-0.936C212.544-0.936 212.124-1.092 211.716-1.404C211.308-1.716 211.104-2.124 211.104-2.628C211.104-3.132 211.128-3.552 211.176-3.888C211.656-6.384 212.520-8.448 213.768-10.080C216.120-13.104 218.208-15.144 220.032-16.200C220.272-16.680 220.080-17.256 219.456-17.928C218.880-18.360 218.244-18.576 217.548-18.576C216.852-18.576 216.048-18.144 215.136-17.280C212.688-15.168 210.744-12.648 209.304-9.720C208.344-7.944 207.864-6.168 207.864-4.392C207.864-3.864 207.912-3.216 208.008-2.448C208.104-1.680 208.572-0.948 209.412-0.252C210.252 0.444 211.440 0.792 212.976 0.792C214.512 0.792 216.192 0.096 218.016-1.296C219.840-2.688 221.400-4.164 222.696-5.724C223.992-7.284 225.480-9.180 227.160-11.412C228.840-13.644 229.968-15.096 230.544-15.768C229.344-12.072 226.488-5.616 221.976 3.600C213.864 8.976 208.548 13.128 206.028 16.056C203.508 18.984 202.248 21.420 202.248 23.364C202.248 25.308 203.472 26.592 205.920 27.216C206.496 27.360 206.976 27.432 207.360 27.432ZM220.608 6.336C220.224 7.104 219.504 8.628 218.448 10.908C217.392 13.188 216.564 14.916 215.964 16.092C215.364 17.268 214.488 18.672 213.336 20.304C212.184 21.936 210.984 23.244 209.736 24.228C208.488 25.212 207.384 25.704 206.424 25.704C205.176 25.704 204.552 24.804 204.552 23.004C204.552 21.204 205.788 19.056 208.260 16.560C210.732 14.064 214.848 10.656 220.608 6.336Z"></path></g></g></svg>