<svg viewBox="0 -44.999999999999986 282.83658787255905 99.99999999999999" xmlns="http://www.w3.org/2000/svg" xmlns:xlink="http://www.w3.org/1999/xlink" version="1.1" class="jsx-2263963463 artboard-inner" style="width: 195.157px; height: 69px; max-height: 100%;"><g transform="translate(-1.438848920863309 15.842754367934226) scale(1.4274294849834415)" fill="#FFFFFF"><g id="line1"><path d="M46.440-38.016C46.440-40.656 43.800-41.976 38.520-41.976C34.728-41.976 30.096-40.944 24.624-38.880C22.080-37.920 19.908-36.636 18.108-35.028C16.308-33.420 15.408-31.788 15.408-30.132C15.408-28.476 16.164-27.060 17.676-25.884C19.188-24.708 21.024-23.760 23.184-23.040C28.800-21.168 33.168-19.512 36.288-18.072C38.976-16.824 40.320-15.096 40.320-12.888C40.320-12.120 39.936-11.184 39.168-10.080C37.248-7.056 32.448-4.272 24.768-1.728C21.216-0.576 17.616 0 13.968 0C10.320 0 7.848-0.528 6.552-1.584C5.256-2.640 4.608-3.840 4.608-5.184C4.608-7.344 5.808-9.504 8.208-11.664C10.032-13.344 12.000-14.628 14.112-15.516C16.224-16.404 17.952-16.860 19.296-16.884C20.640-16.908 21.360-17.088 21.456-17.424C21.552-17.760 21.096-17.928 20.088-17.928C15.864-17.928 11.832-16.608 7.992-13.968C3.336-10.992 1.008-7.368 1.008-3.096C1.008 1.176 4.800 3.312 12.384 3.312C16.224 3.312 20.832 2.244 26.208 0.108C31.584-2.028 35.952-4.704 39.312-7.920C41.520-10.128 42.624-12.168 42.624-14.040C42.624-15.912 41.796-17.616 40.140-19.152C38.484-20.688 36.732-21.876 34.884-22.716C33.036-23.556 30.612-24.540 27.612-25.668C24.612-26.796 22.608-27.600 21.600-28.080C19.728-28.992 18.792-29.952 18.792-30.960C18.792-32.208 20.328-33.672 23.400-35.352C26.040-36.792 28.776-37.836 31.608-38.484C34.440-39.132 36.720-39.456 38.448-39.456C42.528-39.456 44.568-38.424 44.568-36.360C44.568-35.400 43.776-34.176 42.192-32.688C41.664-32.160 41.400-31.872 41.400-31.824C41.400-31.248 41.844-31.200 42.732-31.680C43.620-32.160 44.424-33.048 45.144-34.344C46.008-35.736 46.440-36.960 46.440-38.016Z"></path><path d="M75.456-5.112C77.328-7.128 78.624-8.784 79.344-10.080C79.440-10.224 79.488-10.356 79.488-10.476C79.488-10.596 79.356-10.716 79.092-10.836C78.828-10.956 78.600-10.896 78.408-10.656C77.064-8.736 75.288-6.780 73.080-4.788C70.872-2.796 69.132-1.452 67.860-0.756C66.588-0.060 65.592-0.096 64.872-0.864C64.488-1.296 64.296-1.848 64.296-2.520C64.296-3.192 64.320-3.744 64.368-4.176C64.704-6.624 65.340-8.760 66.276-10.584C67.212-12.408 68.832-15.240 71.136-19.080C71.472-19.656 71.124-20.124 70.092-20.484C69.060-20.844 68.160-21.024 67.392-21.024C67.152-20.640 66.432-19.404 65.232-17.316C64.032-15.228 63.192-13.824 62.712-13.104C59.208-8.016 56.460-4.668 54.468-3.060C52.476-1.452 50.904-0.648 49.752-0.648C49.272-0.648 48.780-0.792 48.276-1.080C47.772-1.368 47.520-2.004 47.520-2.988C47.520-3.972 47.784-5.184 48.312-6.624C49.704-10.320 52.056-13.680 55.368-16.704C56.232-17.328 56.328-17.772 55.656-18.036C54.984-18.300 54.324-18.432 53.676-18.432C53.028-18.432 52.344-18.336 51.624-18.144C51.096-17.952 49.860-16.356 47.916-13.356C45.972-10.356 45-7.440 45-4.608C45-2.304 45.960-0.720 47.880 0.144C48.936 0.576 49.872 0.792 50.688 0.792C52.416 0.792 54.132-0.072 55.836-1.800C57.540-3.528 58.980-5.364 60.156-7.308C61.332-9.252 61.992-10.272 62.136-10.368C61.176-7.920 60.696-5.448 60.696-2.952C60.696-2.232 60.816-1.488 61.056-0.720C61.296 0.048 61.764 0.636 62.460 1.044C63.156 1.452 63.720 1.656 64.152 1.656C66.408 1.656 68.496 0.960 70.416-0.432C71.904-1.536 73.584-3.096 75.456-5.112Z"></path><path d="M97.560-20.448C96.408-20.448 94.920-19.800 93.096-18.504C91.272-17.064 89.040-14.964 86.400-12.204C83.760-9.444 81.576-7.008 79.848-4.896C82.344-11.520 83.856-15.396 84.384-16.524C84.912-17.652 85.176-18.384 85.176-18.720C85.176-19.200 84.840-19.500 84.168-19.620C83.496-19.740 82.944-19.788 82.512-19.764C82.080-19.740 81.732-19.548 81.468-19.188C81.204-18.828 81.024-18.504 80.928-18.216C80.832-17.928 80.748-17.580 80.676-17.172C80.604-16.764 80.460-16.272 80.244-15.696C80.028-15.120 79.428-13.428 78.444-10.620C77.460-7.812 76.548-5.232 75.708-2.880C74.868-0.528 74.400 0.780 74.304 1.044C74.208 1.308 74.160 1.512 74.160 1.656C74.160 1.800 74.376 1.872 74.808 1.872C75.240 1.872 76.320 1.440 78.048 0.576C78.432 0.336 80.076-1.716 82.980-5.580C85.884-9.444 88.080-12.072 89.568-13.464C91.728-15.336 93.192-16.272 93.960-16.272C94.344-16.272 94.536-16.092 94.536-15.732C94.536-15.372 94.212-14.616 93.564-13.464C92.916-12.312 92.160-10.704 91.296-8.640C90.768-7.344 90.408-6.204 90.216-5.220C90.024-4.236 89.928-3.216 89.928-2.160C89.928-1.104 90.264-0.228 90.936 0.468C91.608 1.164 92.760 1.536 94.392 1.584C96.072 1.584 97.776 0.972 99.504-0.252C101.232-1.476 103.032-3.096 104.904-5.112C106.776-7.128 108.072-8.784 108.792-10.080C108.888-10.224 108.936-10.356 108.936-10.476C108.936-10.596 108.804-10.716 108.540-10.836C108.276-10.956 108.048-10.896 107.856-10.656C106.512-8.736 104.724-6.780 102.492-4.788C100.260-2.796 98.520-1.452 97.272-0.756C96.024-0.060 95.040-0.096 94.320-0.864C93.936-1.296 93.744-2.172 93.744-3.492C93.744-4.812 94.200-6.576 95.112-8.784C95.640-10.080 96.456-11.760 97.560-13.824C98.664-15.888 99.216-17.508 99.216-18.684C99.216-19.860 98.664-20.448 97.560-20.448Z"></path><path d="M116.856-18.000C114.552-16.656 112.332-15.036 110.196-13.140C108.060-11.244 106.512-9.288 105.552-7.272C105.120-6.408 104.904-5.496 104.904-4.536C104.904-3.576 105.216-2.676 105.840-1.836C106.464-0.996 107.220-0.348 108.108 0.108C108.996 0.564 109.824 0.792 110.592 0.792C113.808 0.792 119.256-3.672 126.936-12.600C126.072-10.392 125.112-7.608 124.056-4.248C123.288-1.800 122.904 0.864 122.904 3.744C122.904 6.720 124.056 8.400 126.360 8.784C126.696 8.832 127.380 8.856 128.412 8.856C129.444 8.856 130.344 8.592 131.112 8.064C131.448 7.728 131.808 7.320 132.192 6.840C132.384 6.408 132.408 6.144 132.264 6.048C132.120 5.952 131.892 5.988 131.580 6.156C131.268 6.324 131.004 6.504 130.788 6.696C130.572 6.888 130.260 7.116 129.852 7.380C129.444 7.644 128.952 7.716 128.376 7.596C127.800 7.476 127.368 7.104 127.080 6.480C126.504 5.520 126.216 4.224 126.216 2.592C126.216 0.960 126.648-1.512 127.512-4.824C128.376-8.136 129.576-11.568 131.112-15.120C131.544-15.504 133.776-17.316 137.808-20.556C141.840-23.796 144.936-26.520 147.096-28.728C149.256-30.936 150.852-32.964 151.884-34.812C152.916-36.660 153.432-38.184 153.432-39.384C153.432-39.816 153.264-40.320 152.928-40.896C152.208-42.048 150.840-42.624 148.824-42.624C142.824-42.624 136.536-34.992 129.960-19.728C128.808-20.592 127.584-21.024 126.288-21.024C124.992-21.024 123.672-20.856 122.328-20.520C120.984-20.184 119.160-19.344 116.856-18.000ZM129.384-18.576L128.376-16.128C124.200-11.664 119.448-7.248 114.120-2.880C112.056-1.248 110.520-0.432 109.512-0.432C108.504-0.432 108.000-1.320 108.000-3.096C108.000-4.008 108.636-5.460 109.908-7.452C111.180-9.444 112.656-11.232 114.336-12.816C116.352-14.592 118.500-16.068 120.780-17.244C123.060-18.420 124.920-19.008 126.360-19.008C127.800-19.008 128.808-18.864 129.384-18.576ZM150.480-36.720C148.944-33.840 146.472-30.720 143.064-27.360C139.656-24.000 136.392-21.312 133.272-19.296C137.544-28.752 142.320-35.496 147.600-39.528C148.752-40.392 149.676-40.824 150.372-40.824C151.068-40.824 151.416-40.428 151.416-39.636C151.416-38.844 151.104-37.872 150.480-36.720Z"></path><path d="M137.592 0.792C139.272 0.792 141.156-0.048 143.244-1.728C145.332-3.408 147.168-5.160 148.752-6.984C150.336-8.808 151.224-9.768 151.416-9.864C150.504-7.464 150.048-5.184 150.048-3.024C150.048-2.304 150.120-1.656 150.264-1.080C150.888 0.744 152.112 1.656 153.936 1.656C155.856 1.656 157.944 0.816 160.200-0.864C161.400-1.728 163.140-3.372 165.420-5.796C167.700-8.220 168.840-9.792 168.840-10.512C168.840-10.608 168.720-10.716 168.480-10.836C168.240-10.956 168.024-10.896 167.832-10.656C166.488-8.736 164.700-6.768 162.468-4.752C160.236-2.736 158.496-1.392 157.248-0.720C156.000-0.048 155.016-0.096 154.296-0.864C153.912-1.296 153.720-1.848 153.720-2.520C153.720-3.192 153.744-3.744 153.792-4.176C154.224-7.680 155.664-11.160 158.112-14.616C158.400-15.096 158.136-15.504 157.320-15.840C156.504-16.176 155.808-16.344 155.232-16.344C154.896-16.344 152.520-13.968 148.104-9.216C146.856-7.872 144.528-5.760 141.120-2.880C139.056-1.248 137.520-0.432 136.512-0.432C135.504-0.432 135.000-1.320 135.000-3.096C135.000-4.008 135.636-5.460 136.908-7.452C138.180-9.444 139.656-11.232 141.336-12.816C143.352-14.592 145.500-16.068 147.780-17.244C150.060-18.420 152.100-19.008 153.900-19.008C155.700-19.008 156.888-18.552 157.464-17.640C157.656-17.544 157.776-17.520 157.824-17.568C157.872-17.616 157.896-17.760 157.896-18.000C157.896-18.720 157.440-19.404 156.528-20.052C155.616-20.700 154.524-21.024 153.252-21.024C151.980-21.024 150.672-20.856 149.328-20.520C147.984-20.184 146.160-19.344 143.856-18.000C141.552-16.656 139.332-15.036 137.196-13.140C135.060-11.244 133.512-9.288 132.552-7.272C132.120-6.408 131.904-5.496 131.904-4.536C131.904-3.576 132.216-2.676 132.840-1.836C133.464-0.996 134.220-0.348 135.108 0.108C135.996 0.564 136.824 0.792 137.592 0.792Z"></path><path d="M164.952 27.432C168.456 27.432 172.008 24.768 175.608 19.440C177.000 17.280 179.736 12.000 183.816 3.600C185.736 2.544 188.328 0.528 191.592-2.448C194.856-5.424 197.232-7.896 198.720-9.864C199.008-10.248 199.152-10.548 199.152-10.764C199.152-10.980 199.128-11.136 199.080-11.232C198.936-11.712 198.624-11.664 198.144-11.088C196.224-8.688 193.884-6.324 191.124-3.996C188.364-1.668 186.408-0.192 185.256 0.432C186.312-1.824 188.004-5.556 190.332-10.764C192.660-15.972 193.884-18.696 194.004-18.936C194.124-19.176 193.776-19.512 192.960-19.944C192.144-20.376 191.352-20.592 190.584-20.592C189.960-20.592 189.348-20.208 188.748-19.440C188.148-18.672 186.900-17.064 185.004-14.616C183.108-12.168 181.416-10.068 179.928-8.316C178.440-6.564 176.880-4.896 175.248-3.312C173.616-1.728 172.056-0.936 170.568-0.936C170.136-0.936 169.716-1.092 169.308-1.404C168.900-1.716 168.696-2.124 168.696-2.628C168.696-3.132 168.720-3.552 168.768-3.888C169.248-6.384 170.112-8.448 171.360-10.080C173.712-13.104 175.800-15.144 177.624-16.200C177.864-16.680 177.672-17.256 177.048-17.928C176.472-18.360 175.836-18.576 175.140-18.576C174.444-18.576 173.640-18.144 172.728-17.280C170.280-15.168 168.336-12.648 166.896-9.720C165.936-7.944 165.456-6.168 165.456-4.392C165.456-3.864 165.504-3.216 165.600-2.448C165.696-1.680 166.164-0.948 167.004-0.252C167.844 0.444 169.032 0.792 170.568 0.792C172.104 0.792 173.784 0.096 175.608-1.296C177.432-2.688 178.992-4.164 180.288-5.724C181.584-7.284 183.072-9.180 184.752-11.412C186.432-13.644 187.560-15.096 188.136-15.768C186.936-12.072 184.080-5.616 179.568 3.600C171.456 8.976 166.140 13.128 163.620 16.056C161.100 18.984 159.840 21.420 159.840 23.364C159.840 25.308 161.064 26.592 163.512 27.216C164.088 27.360 164.568 27.432 164.952 27.432ZM178.200 6.336C177.816 7.104 177.096 8.628 176.040 10.908C174.984 13.188 174.156 14.916 173.556 16.092C172.956 17.268 172.080 18.672 170.928 20.304C169.776 21.936 168.576 23.244 167.328 24.228C166.080 25.212 164.976 25.704 164.016 25.704C162.768 25.704 162.144 24.804 162.144 23.004C162.144 21.204 163.380 19.056 165.852 16.560C168.324 14.064 172.440 10.656 178.200 6.336Z"></path></g></g></svg>