<svg viewBox="0 -40.999999999999986 324.6659815005138 99.99999999999999" xmlns="http://www.w3.org/2000/svg" xmlns:xlink="http://www.w3.org/1999/xlink" version="1.1" class="jsx-2263963463 artboard-inner" style="width: 214.28px; height: 66px; max-height: 100%;"><g transform="translate(-0.9249743062692702 19.842754367934226) scale(1.4274294849834415)" fill="#FFFFFF"><g id="line1"><path d="M19.512-4.176C19.080-4.176 18.240-3.360 16.992-1.728C16.464-1.056 15.900-0.624 15.300-0.432C14.700-0.240 14.304-0.384 14.112-0.864L14.112-1.548C14.112-1.908 14.304-2.592 14.688-3.600C18.192-12.048 22.464-19.536 27.504-26.064C30.528-30.000 33.048-31.968 35.064-31.968C35.352-31.968 35.664-31.848 36.000-31.608C36.144-32.568 35.664-33.348 34.560-33.948C33.456-34.548 32.520-34.848 31.752-34.848C30.024-34.848 28.116-33.768 26.028-31.608C23.940-29.448 22.752-27.672 22.464-26.280C22.608-26.040 22.680-25.692 22.680-25.236C22.680-24.780 22.464-24.144 22.032-23.328C19.824-19.296 17.616-15.120 15.408-10.800C14.208-8.496 13.152-6.156 12.240-3.780C11.328-1.404 10.872 0.096 10.872 0.720C10.872 1.344 10.884 1.752 10.908 1.944C10.932 2.136 11.316 2.316 12.060 2.484C12.804 2.652 13.356 2.736 13.716 2.736C14.076 2.736 14.556 2.568 15.156 2.232C15.756 1.896 16.704 0.744 18.000-1.224L18.720-2.304C19.392-2.976 19.728-3.456 19.728-3.744C19.728-4.032 19.656-4.176 19.512-4.176ZM46.944-35.208C46.080-33.528 45.648-31.656 45.648-29.592C45.648-27.528 45.888-26.304 46.368-25.920C46.800-25.392 47.208-25.236 47.592-25.452C47.976-25.668 48.000-26.028 47.664-26.532C47.328-27.036 47.160-27.696 47.160-28.512C47.160-30.384 48.408-32.568 50.904-35.064C51.432-35.592 52.140-36.180 53.028-36.828C53.916-37.476 54.504-37.968 54.792-38.304C55.080-38.640 55.224-38.976 55.224-39.312C55.224-39.648 55.056-39.972 54.720-40.284C54.384-40.596 54.000-40.752 53.568-40.752C53.136-40.752 52.800-40.728 52.560-40.680C51.888-40.632 50.904-39.888 49.608-38.448C48.888-38.448 45.372-38.880 39.060-39.744C32.748-40.608 27.648-41.040 23.760-41.040C17.376-41.040 12.000-39.912 7.632-37.656C3.984-35.784 1.800-33.144 1.080-29.736C1.032-29.496 1.008-29.112 1.008-28.584C0.768-27.960 0.648-27.204 0.648-26.316C0.648-25.428 1.212-24.324 2.340-23.004C3.468-21.684 4.848-20.784 6.480-20.304C6.672-20.256 6.852-20.232 7.020-20.232C7.188-20.232 7.356-20.304 7.524-20.448C7.692-20.592 7.644-20.772 7.380-20.988C7.116-21.204 6.588-21.552 5.796-22.032C5.004-22.512 4.416-22.920 4.032-23.256C3.648-23.592 3.324-24.048 3.060-24.624C2.796-25.200 2.664-25.692 2.664-26.100C2.664-26.508 2.712-26.856 2.808-27.144C3.432-30.024 5.388-32.412 8.676-34.308C11.964-36.204 15.888-37.464 20.448-38.088C23.856-38.424 26.520-38.592 28.440-38.592C30.360-38.592 33.936-38.376 39.168-37.944C43.392-37.608 46.560-37.416 48.672-37.368C47.904-36.552 47.328-35.832 46.944-35.208Z"></path><path d="M51.768-42.120C46.632-40.152 41.208-33.024 35.496-20.736C35.112-19.920 34.680-19.176 34.200-18.504C33.480-18.792 32.964-18.852 32.652-18.684C32.340-18.516 32.196-18.216 32.220-17.784C32.244-17.352 32.472-17.016 32.904-16.776C32.328-15.960 31.356-14.724 29.988-13.068C28.620-11.412 27.720-10.296 27.288-9.720C26.856-9.144 26.640-8.580 26.640-8.028C26.640-7.476 26.832-7.392 27.216-7.776C29.568-10.320 31.536-12.600 33.120-14.616C32.304-12.552 30.768-8.328 28.512-1.944C27.840-0.024 27.456 1.032 27.360 1.224C27.264 1.416 27.240 1.572 27.288 1.692C27.336 1.812 27.564 1.872 27.972 1.872C28.380 1.872 29.448 1.440 31.176 0.576C31.560 0.336 33.204-1.716 36.108-5.580C39.012-9.444 41.208-12.072 42.696-13.464C44.904-15.384 46.392-16.344 47.160-16.344C47.544-16.344 47.736-16.164 47.736-15.804C47.736-15.444 47.496-14.832 47.016-13.968C44.712-9.696 43.440-6.552 43.200-4.536C43.104-3.864 43.056-3.228 43.056-2.628C43.056-2.028 43.128-1.512 43.272-1.080C43.896 0.744 45.120 1.656 46.944 1.656C48.960 1.656 51.072 0.816 53.280-0.864C54.432-1.728 55.944-3.156 57.816-5.148C59.688-7.140 60.984-8.784 61.704-10.080C61.800-10.224 61.848-10.356 61.848-10.476C61.848-10.596 61.740-10.716 61.524-10.836C61.308-10.956 61.080-10.896 60.840-10.656C59.448-8.736 57.636-6.768 55.404-4.752C53.172-2.736 51.432-1.392 50.184-0.720C48.936-0.048 47.976-0.096 47.304-0.864C46.920-1.296 46.728-1.992 46.728-2.952C46.728-5.880 47.856-9.216 50.112-12.960C50.592-13.824 51.108-14.760 51.660-15.768C52.212-16.776 52.440-17.832 52.344-18.936C52.296-19.992 51.744-20.520 50.688-20.520C48.576-20.520 44.856-17.760 39.528-12.240C36.888-9.456 34.704-7.008 32.976-4.896C34.416-9.312 35.808-13.032 37.152-16.056C41.232-19.128 45.696-22.800 50.544-27.072C56.016-32.016 58.752-36.120 58.752-39.384C58.752-39.816 58.560-40.320 58.176-40.896C57.504-42.048 56.112-42.624 54.000-42.624C53.376-42.624 52.632-42.456 51.768-42.120ZM55.800-36.720C54.264-33.840 51.792-30.720 48.384-27.360C44.976-24.000 41.712-21.312 38.592-19.296C42.864-28.752 47.640-35.496 52.920-39.528C54.072-40.392 54.996-40.824 55.692-40.824C56.388-40.824 56.736-40.428 56.736-39.636C56.736-38.844 56.424-37.872 55.800-36.720Z"></path><path d="M89.856-5.112C91.728-7.128 93.024-8.784 93.744-10.080C93.840-10.224 93.888-10.356 93.888-10.476C93.888-10.596 93.756-10.716 93.492-10.836C93.228-10.956 93.000-10.896 92.808-10.656C91.464-8.736 89.688-6.780 87.480-4.788C85.272-2.796 83.532-1.452 82.260-0.756C80.988-0.060 79.992-0.096 79.272-0.864C78.888-1.296 78.696-1.848 78.696-2.520C78.696-3.192 78.720-3.744 78.768-4.176C79.104-6.624 79.740-8.760 80.676-10.584C81.612-12.408 83.232-15.240 85.536-19.080C85.872-19.656 85.524-20.124 84.492-20.484C83.460-20.844 82.560-21.024 81.792-21.024C81.552-20.640 80.832-19.404 79.632-17.316C78.432-15.228 77.592-13.824 77.112-13.104C73.608-8.016 70.860-4.668 68.868-3.060C66.876-1.452 65.304-0.648 64.152-0.648C63.672-0.648 63.180-0.792 62.676-1.080C62.172-1.368 61.920-2.004 61.920-2.988C61.920-3.972 62.184-5.184 62.712-6.624C64.104-10.320 66.456-13.680 69.768-16.704C70.632-17.328 70.728-17.772 70.056-18.036C69.384-18.300 68.724-18.432 68.076-18.432C67.428-18.432 66.744-18.336 66.024-18.144C65.496-17.952 64.260-16.356 62.316-13.356C60.372-10.356 59.400-7.440 59.400-4.608C59.400-2.304 60.360-0.720 62.280 0.144C63.336 0.576 64.272 0.792 65.088 0.792C66.816 0.792 68.532-0.072 70.236-1.800C71.940-3.528 73.380-5.364 74.556-7.308C75.732-9.252 76.392-10.272 76.536-10.368C75.576-7.920 75.096-5.448 75.096-2.952C75.096-2.232 75.216-1.488 75.456-0.720C75.696 0.048 76.164 0.636 76.860 1.044C77.556 1.452 78.120 1.656 78.552 1.656C80.808 1.656 82.896 0.960 84.816-0.432C86.304-1.536 87.984-3.096 89.856-5.112Z"></path><path d="M101.448 1.800C103.464 1.800 105.336 1.128 107.064-0.216C108.840-1.464 110.664-3.096 112.536-5.112C114.408-7.128 115.704-8.784 116.424-10.080C116.520-10.224 116.568-10.356 116.568-10.476C116.568-10.596 116.436-10.716 116.172-10.836C115.908-10.956 115.680-10.896 115.488-10.656C114.144-8.736 112.368-6.780 110.160-4.788C107.952-2.796 106.380-1.536 105.444-1.008C104.508-0.480 103.872-0.216 103.536-0.216C102.528-0.216 102.024-0.912 102.024-2.304C102.024-2.976 102.192-3.768 102.528-4.680C103.968-8.472 106.128-12.048 109.008-15.408C110.352-16.944 111.192-18.168 111.528-19.080C111.720-19.608 111.624-19.980 111.240-20.196C110.856-20.412 110.256-20.520 109.440-20.520L106.920-20.448C105.384-20.448 103.536-20.520 101.376-20.664L104.184-25.128C105.144-26.856 105.336-27.720 104.760-27.720C104.472-27.720 104.208-27.672 103.968-27.576C103.728-27.480 103.152-27.216 102.240-26.784C101.328-26.352 100.260-25.512 99.036-24.264C97.812-23.016 97.080-22.020 96.840-21.276C96.600-20.532 96.624-20.004 96.912-19.692C97.200-19.380 97.632-19.176 98.208-19.080C96.336-15.480 94.104-12.096 91.512-8.928C91.224-8.544 91.080-8.256 91.080-8.064C91.080-7.872 91.200-7.704 91.440-7.560C91.680-7.416 92.136-7.776 92.808-8.640C93.480-9.504 95.976-12.984 100.296-19.080C101.160-19.080 102.288-18.948 103.680-18.684C105.072-18.420 105.864-18.000 106.056-17.424L106.272-16.776C106.320-16.536 106.008-15.960 105.336-15.048L104.832-14.328C104.688-14.136 104.448-13.872 104.112-13.536C99.888-9.216 97.776-5.580 97.776-2.628C97.776 0.324 99.000 1.800 101.448 1.800Z"></path><path d="M115.344 0.720C115.872 0 116.364-0.456 116.820-0.648C117.276-0.840 117.528-1.008 117.576-1.152C117.624-1.296 117.600-1.416 117.504-1.512C117.408-1.608 117.288-1.632 117.144-1.584C115.560-0.912 114.408-0.216 113.688 0.504C112.920 1.416 112.536 2.076 112.536 2.484C112.536 2.892 112.608 3.192 112.752 3.384C113.136 4.152 113.844 4.536 114.876 4.536C115.908 4.536 116.928 4.416 117.936 4.176C122.400 3.168 125.760 1.416 128.016-1.080C129.600-2.808 130.272-4.392 130.032-5.832C129.984-6.360 129.624-6.936 128.952-7.560C128.280-8.184 127.704-8.640 127.224-8.928C126.744-9.216 125.928-9.672 124.776-10.296C123.624-10.920 122.808-11.376 122.328-11.664C121.176-12.336 120.600-13.092 120.600-13.932C120.600-14.772 120.912-15.600 121.536-16.416C123.120-18.624 125.316-20.424 128.124-21.816C130.932-23.208 133.272-23.904 135.144-23.904L135.576-23.904C136.488-23.712 136.872-23.184 136.728-22.320C136.584-21.456 136.260-20.772 135.756-20.268C135.252-19.764 135.048-19.368 135.144-19.080C135.336-18.792 135.576-18.744 135.864-18.936C136.968-19.656 137.700-20.424 138.060-21.240C138.420-22.056 138.600-22.776 138.600-23.400C138.600-24.024 138.228-24.660 137.484-25.308C136.740-25.956 135.456-26.280 133.632-26.280C130.752-26.280 127.560-25.224 124.056-23.112C120.552-21.000 118.632-18.624 118.296-15.984C117.672-14.160 116.376-11.904 114.408-9.216C114.168-8.832 114.192-8.532 114.480-8.316C114.768-8.100 115.080-8.184 115.416-8.568C116.904-10.728 117.984-12.384 118.656-13.536C118.992-12.672 119.808-11.808 121.104-10.944C121.248-10.848 121.872-10.512 122.976-9.936C125.328-8.688 126.504-7.536 126.504-6.480C126.504-4.560 125.532-2.676 123.588-0.828C121.644 1.020 119.640 2.256 117.576 2.880C117.096 3.024 116.628 3.096 116.172 3.096C115.716 3.096 115.308 2.880 114.948 2.448C114.588 2.016 114.720 1.440 115.344 0.720Z"></path><path d="M145.800-18.000C143.496-16.656 141.276-15.036 139.140-13.140C137.004-11.244 135.456-9.288 134.496-7.272C134.064-6.408 133.848-5.496 133.848-4.536C133.848-3.576 134.160-2.676 134.784-1.836C135.408-0.996 136.164-0.348 137.052 0.108C137.940 0.564 138.768 0.792 139.536 0.792C142.752 0.792 148.200-3.672 155.880-12.600C155.016-10.392 154.056-7.608 153-4.248C152.232-1.800 151.848 0.864 151.848 3.744C151.848 6.720 153 8.400 155.304 8.784C155.640 8.832 156.324 8.856 157.356 8.856C158.388 8.856 159.288 8.592 160.056 8.064C160.392 7.728 160.752 7.320 161.136 6.840C161.328 6.408 161.352 6.144 161.208 6.048C161.064 5.952 160.836 5.988 160.524 6.156C160.212 6.324 159.948 6.504 159.732 6.696C159.516 6.888 159.204 7.116 158.796 7.380C158.388 7.644 157.896 7.716 157.320 7.596C156.744 7.476 156.312 7.104 156.024 6.480C155.448 5.520 155.160 4.224 155.160 2.592C155.160 0.960 155.592-1.512 156.456-4.824C157.320-8.136 158.520-11.568 160.056-15.120C160.488-15.504 162.720-17.316 166.752-20.556C170.784-23.796 173.880-26.520 176.040-28.728C178.200-30.936 179.796-32.964 180.828-34.812C181.860-36.660 182.376-38.184 182.376-39.384C182.376-39.816 182.208-40.320 181.872-40.896C181.152-42.048 179.784-42.624 177.768-42.624C171.768-42.624 165.480-34.992 158.904-19.728C157.752-20.592 156.528-21.024 155.232-21.024C153.936-21.024 152.616-20.856 151.272-20.520C149.928-20.184 148.104-19.344 145.800-18.000ZM158.328-18.576L157.320-16.128C153.144-11.664 148.392-7.248 143.064-2.880C141.000-1.248 139.464-0.432 138.456-0.432C137.448-0.432 136.944-1.320 136.944-3.096C136.944-4.008 137.580-5.460 138.852-7.452C140.124-9.444 141.600-11.232 143.280-12.816C145.296-14.592 147.444-16.068 149.724-17.244C152.004-18.420 153.864-19.008 155.304-19.008C156.744-19.008 157.752-18.864 158.328-18.576ZM179.424-36.720C177.888-33.840 175.416-30.720 172.008-27.360C168.600-24.000 165.336-21.312 162.216-19.296C166.488-28.752 171.264-35.496 176.544-39.528C177.696-40.392 178.620-40.824 179.316-40.824C180.012-40.824 180.360-40.428 180.360-39.636C180.360-38.844 180.048-37.872 179.424-36.720Z"></path><path d="M166.536 0.792C168.216 0.792 170.100-0.048 172.188-1.728C174.276-3.408 176.112-5.160 177.696-6.984C179.280-8.808 180.168-9.768 180.360-9.864C179.448-7.464 178.992-5.184 178.992-3.024C178.992-2.304 179.064-1.656 179.208-1.080C179.832 0.744 181.056 1.656 182.880 1.656C184.800 1.656 186.888 0.816 189.144-0.864C190.344-1.728 192.084-3.372 194.364-5.796C196.644-8.220 197.784-9.792 197.784-10.512C197.784-10.608 197.664-10.716 197.424-10.836C197.184-10.956 196.968-10.896 196.776-10.656C195.432-8.736 193.644-6.768 191.412-4.752C189.180-2.736 187.440-1.392 186.192-0.720C184.944-0.048 183.960-0.096 183.240-0.864C182.856-1.296 182.664-1.848 182.664-2.520C182.664-3.192 182.688-3.744 182.736-4.176C183.168-7.680 184.608-11.160 187.056-14.616C187.344-15.096 187.080-15.504 186.264-15.840C185.448-16.176 184.752-16.344 184.176-16.344C183.840-16.344 181.464-13.968 177.048-9.216C175.800-7.872 173.472-5.760 170.064-2.880C168.000-1.248 166.464-0.432 165.456-0.432C164.448-0.432 163.944-1.320 163.944-3.096C163.944-4.008 164.580-5.460 165.852-7.452C167.124-9.444 168.600-11.232 170.280-12.816C172.296-14.592 174.444-16.068 176.724-17.244C179.004-18.420 181.044-19.008 182.844-19.008C184.644-19.008 185.832-18.552 186.408-17.640C186.600-17.544 186.720-17.520 186.768-17.568C186.816-17.616 186.840-17.760 186.840-18.000C186.840-18.720 186.384-19.404 185.472-20.052C184.560-20.700 183.468-21.024 182.196-21.024C180.924-21.024 179.616-20.856 178.272-20.520C176.928-20.184 175.104-19.344 172.800-18.000C170.496-16.656 168.276-15.036 166.140-13.140C164.004-11.244 162.456-9.288 161.496-7.272C161.064-6.408 160.848-5.496 160.848-4.536C160.848-3.576 161.160-2.676 161.784-1.836C162.408-0.996 163.164-0.348 164.052 0.108C164.940 0.564 165.768 0.792 166.536 0.792Z"></path><path d="M193.896 27.432C197.400 27.432 200.952 24.768 204.552 19.440C205.944 17.280 208.680 12.000 212.760 3.600C214.680 2.544 217.272 0.528 220.536-2.448C223.800-5.424 226.176-7.896 227.664-9.864C227.952-10.248 228.096-10.548 228.096-10.764C228.096-10.980 228.072-11.136 228.024-11.232C227.880-11.712 227.568-11.664 227.088-11.088C225.168-8.688 222.828-6.324 220.068-3.996C217.308-1.668 215.352-0.192 214.200 0.432C215.256-1.824 216.948-5.556 219.276-10.764C221.604-15.972 222.828-18.696 222.948-18.936C223.068-19.176 222.720-19.512 221.904-19.944C221.088-20.376 220.296-20.592 219.528-20.592C218.904-20.592 218.292-20.208 217.692-19.440C217.092-18.672 215.844-17.064 213.948-14.616C212.052-12.168 210.360-10.068 208.872-8.316C207.384-6.564 205.824-4.896 204.192-3.312C202.560-1.728 201.000-0.936 199.512-0.936C199.080-0.936 198.660-1.092 198.252-1.404C197.844-1.716 197.640-2.124 197.640-2.628C197.640-3.132 197.664-3.552 197.712-3.888C198.192-6.384 199.056-8.448 200.304-10.080C202.656-13.104 204.744-15.144 206.568-16.200C206.808-16.680 206.616-17.256 205.992-17.928C205.416-18.360 204.780-18.576 204.084-18.576C203.388-18.576 202.584-18.144 201.672-17.280C199.224-15.168 197.280-12.648 195.840-9.720C194.880-7.944 194.400-6.168 194.400-4.392C194.400-3.864 194.448-3.216 194.544-2.448C194.640-1.680 195.108-0.948 195.948-0.252C196.788 0.444 197.976 0.792 199.512 0.792C201.048 0.792 202.728 0.096 204.552-1.296C206.376-2.688 207.936-4.164 209.232-5.724C210.528-7.284 212.016-9.180 213.696-11.412C215.376-13.644 216.504-15.096 217.080-15.768C215.880-12.072 213.024-5.616 208.512 3.600C200.400 8.976 195.084 13.128 192.564 16.056C190.044 18.984 188.784 21.420 188.784 23.364C188.784 25.308 190.008 26.592 192.456 27.216C193.032 27.360 193.512 27.432 193.896 27.432ZM207.144 6.336C206.760 7.104 206.040 8.628 204.984 10.908C203.928 13.188 203.100 14.916 202.500 16.092C201.900 17.268 201.024 18.672 199.872 20.304C198.720 21.936 197.520 23.244 196.272 24.228C195.024 25.212 193.920 25.704 192.960 25.704C191.712 25.704 191.088 24.804 191.088 23.004C191.088 21.204 192.324 19.056 194.796 16.560C197.268 14.064 201.384 10.656 207.144 6.336Z"></path></g></g></svg>