<svg viewBox="0 -42.999999999999986 278.2117163412127 99.99999999999999" xmlns="http://www.w3.org/2000/svg" xmlns:xlink="http://www.w3.org/1999/xlink" version="1.1" class="jsx-2263963463 artboard-inner" style="width: 183.62px; height: 66px; max-height: 100%;"><g transform="translate(-0.9249743062692702 17.842754367934226) scale(1.4274294849834415)" fill="#FFFFFF"><g id="line1"><path d="M19.512-4.176C19.080-4.176 18.240-3.360 16.992-1.728C16.464-1.056 15.900-0.624 15.300-0.432C14.700-0.240 14.304-0.384 14.112-0.864L14.112-1.548C14.112-1.908 14.304-2.592 14.688-3.600C18.192-12.048 22.464-19.536 27.504-26.064C30.528-30.000 33.048-31.968 35.064-31.968C35.352-31.968 35.664-31.848 36.000-31.608C36.144-32.568 35.664-33.348 34.560-33.948C33.456-34.548 32.520-34.848 31.752-34.848C30.024-34.848 28.116-33.768 26.028-31.608C23.940-29.448 22.752-27.672 22.464-26.280C22.608-26.040 22.680-25.692 22.680-25.236C22.680-24.780 22.464-24.144 22.032-23.328C19.824-19.296 17.616-15.120 15.408-10.800C14.208-8.496 13.152-6.156 12.240-3.780C11.328-1.404 10.872 0.096 10.872 0.720C10.872 1.344 10.884 1.752 10.908 1.944C10.932 2.136 11.316 2.316 12.060 2.484C12.804 2.652 13.356 2.736 13.716 2.736C14.076 2.736 14.556 2.568 15.156 2.232C15.756 1.896 16.704 0.744 18.000-1.224L18.720-2.304C19.392-2.976 19.728-3.456 19.728-3.744C19.728-4.032 19.656-4.176 19.512-4.176ZM46.944-35.208C46.080-33.528 45.648-31.656 45.648-29.592C45.648-27.528 45.888-26.304 46.368-25.920C46.800-25.392 47.208-25.236 47.592-25.452C47.976-25.668 48.000-26.028 47.664-26.532C47.328-27.036 47.160-27.696 47.160-28.512C47.160-30.384 48.408-32.568 50.904-35.064C51.432-35.592 52.140-36.180 53.028-36.828C53.916-37.476 54.504-37.968 54.792-38.304C55.080-38.640 55.224-38.976 55.224-39.312C55.224-39.648 55.056-39.972 54.720-40.284C54.384-40.596 54.000-40.752 53.568-40.752C53.136-40.752 52.800-40.728 52.560-40.680C51.888-40.632 50.904-39.888 49.608-38.448C48.888-38.448 45.372-38.880 39.060-39.744C32.748-40.608 27.648-41.040 23.760-41.040C17.376-41.040 12.000-39.912 7.632-37.656C3.984-35.784 1.800-33.144 1.080-29.736C1.032-29.496 1.008-29.112 1.008-28.584C0.768-27.960 0.648-27.204 0.648-26.316C0.648-25.428 1.212-24.324 2.340-23.004C3.468-21.684 4.848-20.784 6.480-20.304C6.672-20.256 6.852-20.232 7.020-20.232C7.188-20.232 7.356-20.304 7.524-20.448C7.692-20.592 7.644-20.772 7.380-20.988C7.116-21.204 6.588-21.552 5.796-22.032C5.004-22.512 4.416-22.920 4.032-23.256C3.648-23.592 3.324-24.048 3.060-24.624C2.796-25.200 2.664-25.692 2.664-26.100C2.664-26.508 2.712-26.856 2.808-27.144C3.432-30.024 5.388-32.412 8.676-34.308C11.964-36.204 15.888-37.464 20.448-38.088C23.856-38.424 26.520-38.592 28.440-38.592C30.360-38.592 33.936-38.376 39.168-37.944C43.392-37.608 46.560-37.416 48.672-37.368C47.904-36.552 47.328-35.832 46.944-35.208Z"></path><path d="M57.024-5.112C58.896-7.128 60.192-8.784 60.912-10.080C61.008-10.224 61.056-10.356 61.056-10.476C61.056-10.596 60.924-10.716 60.660-10.836C60.396-10.956 60.168-10.896 59.976-10.656C58.632-8.736 56.856-6.780 54.648-4.788C52.440-2.796 50.700-1.452 49.428-0.756C48.156-0.060 47.160-0.096 46.440-0.864C46.056-1.296 45.864-1.848 45.864-2.520C45.864-3.192 45.888-3.744 45.936-4.176C46.272-6.624 46.908-8.760 47.844-10.584C48.780-12.408 50.400-15.240 52.704-19.080C53.040-19.656 52.692-20.124 51.660-20.484C50.628-20.844 49.728-21.024 48.960-21.024C48.720-20.640 48.000-19.404 46.800-17.316C45.600-15.228 44.760-13.824 44.280-13.104C40.776-8.016 38.028-4.668 36.036-3.060C34.044-1.452 32.472-0.648 31.320-0.648C30.840-0.648 30.348-0.792 29.844-1.080C29.340-1.368 29.088-2.004 29.088-2.988C29.088-3.972 29.352-5.184 29.880-6.624C31.272-10.320 33.624-13.680 36.936-16.704C37.800-17.328 37.896-17.772 37.224-18.036C36.552-18.300 35.892-18.432 35.244-18.432C34.596-18.432 33.912-18.336 33.192-18.144C32.664-17.952 31.428-16.356 29.484-13.356C27.540-10.356 26.568-7.440 26.568-4.608C26.568-2.304 27.528-0.720 29.448 0.144C30.504 0.576 31.440 0.792 32.256 0.792C33.984 0.792 35.700-0.072 37.404-1.800C39.108-3.528 40.548-5.364 41.724-7.308C42.900-9.252 43.560-10.272 43.704-10.368C42.744-7.920 42.264-5.448 42.264-2.952C42.264-2.232 42.384-1.488 42.624-0.720C42.864 0.048 43.332 0.636 44.028 1.044C44.724 1.452 45.288 1.656 45.720 1.656C47.976 1.656 50.064 0.960 51.984-0.432C53.472-1.536 55.152-3.096 57.024-5.112Z"></path><path d="M75.744-20.952C73.440-20.952 70.320-19.512 66.384-16.632C62.448-13.752 59.880-10.944 58.680-8.208C58.056-6.624 57.744-5.256 57.744-4.104C57.744-2.952 58.008-1.968 58.536-1.152C59.928 0.912 62.352 1.944 65.808 1.944C69.840 1.944 73.992 0.120 78.264-3.528C80.472-5.400 82.296-7.536 83.736-9.936C83.880-10.128 83.952-10.296 83.952-10.440C83.952-10.584 83.856-10.704 83.664-10.800C83.424-11.040 83.160-10.968 82.872-10.584C79.944-6.120 75.768-2.784 70.344-0.576C68.472 0.192 66.816 0.576 65.376 0.576C64.080 0.576 63.120 0.240 62.496-0.432C61.872-1.104 61.560-1.812 61.560-2.556C61.560-3.300 61.680-4.056 61.920-4.824C62.688-7.320 64.320-9.876 66.816-12.492C69.312-15.108 71.688-16.944 73.944-18.000C75.000-18.528 75.840-18.792 76.464-18.792C77.232-18.792 77.616-18.396 77.616-17.604C77.616-16.812 77.304-15.984 76.680-15.120C75.192-13.296 72.840-11.520 69.624-9.792C67.896-8.832 66.480-8.304 65.376-8.208C65.280-8.208 65.148-8.184 64.980-8.136C64.812-8.088 64.752-7.968 64.800-7.776C64.848-7.344 65.208-7.152 65.880-7.200C67.752-7.344 70.032-8.076 72.720-9.396C75.408-10.716 77.352-12.264 78.552-14.040C79.272-14.856 79.632-15.912 79.632-17.208C79.632-19.704 78.336-20.952 75.744-20.952Z"></path><path d="M82.800 0.720C83.328 0 83.820-0.456 84.276-0.648C84.732-0.840 84.984-1.008 85.032-1.152C85.080-1.296 85.056-1.416 84.960-1.512C84.864-1.608 84.744-1.632 84.600-1.584C83.016-0.912 81.864-0.216 81.144 0.504C80.376 1.416 79.992 2.076 79.992 2.484C79.992 2.892 80.064 3.192 80.208 3.384C80.592 4.152 81.300 4.536 82.332 4.536C83.364 4.536 84.384 4.416 85.392 4.176C89.856 3.168 93.216 1.416 95.472-1.080C97.056-2.808 97.728-4.392 97.488-5.832C97.440-6.360 97.080-6.936 96.408-7.560C95.736-8.184 95.160-8.640 94.680-8.928C94.200-9.216 93.384-9.672 92.232-10.296C91.080-10.920 90.264-11.376 89.784-11.664C88.632-12.336 88.056-13.092 88.056-13.932C88.056-14.772 88.368-15.600 88.992-16.416C90.576-18.624 92.772-20.424 95.580-21.816C98.388-23.208 100.728-23.904 102.600-23.904L103.032-23.904C103.944-23.712 104.328-23.184 104.184-22.320C104.040-21.456 103.716-20.772 103.212-20.268C102.708-19.764 102.504-19.368 102.600-19.080C102.792-18.792 103.032-18.744 103.320-18.936C104.424-19.656 105.156-20.424 105.516-21.240C105.876-22.056 106.056-22.776 106.056-23.400C106.056-24.024 105.684-24.660 104.940-25.308C104.196-25.956 102.912-26.280 101.088-26.280C98.208-26.280 95.016-25.224 91.512-23.112C88.008-21.000 86.088-18.624 85.752-15.984C85.128-14.160 83.832-11.904 81.864-9.216C81.624-8.832 81.648-8.532 81.936-8.316C82.224-8.100 82.536-8.184 82.872-8.568C84.360-10.728 85.440-12.384 86.112-13.536C86.448-12.672 87.264-11.808 88.560-10.944C88.704-10.848 89.328-10.512 90.432-9.936C92.784-8.688 93.960-7.536 93.960-6.480C93.960-4.560 92.988-2.676 91.044-0.828C89.100 1.020 87.096 2.256 85.032 2.880C84.552 3.024 84.084 3.096 83.628 3.096C83.172 3.096 82.764 2.880 82.404 2.448C82.044 2.016 82.176 1.440 82.800 0.720Z"></path><path d="M113.256-18.000C110.952-16.656 108.732-15.036 106.596-13.140C104.460-11.244 102.912-9.288 101.952-7.272C101.520-6.408 101.304-5.496 101.304-4.536C101.304-3.576 101.616-2.676 102.240-1.836C102.864-0.996 103.620-0.348 104.508 0.108C105.396 0.564 106.224 0.792 106.992 0.792C110.208 0.792 115.656-3.672 123.336-12.600C122.472-10.392 121.512-7.608 120.456-4.248C119.688-1.800 119.304 0.864 119.304 3.744C119.304 6.720 120.456 8.400 122.760 8.784C123.096 8.832 123.780 8.856 124.812 8.856C125.844 8.856 126.744 8.592 127.512 8.064C127.848 7.728 128.208 7.320 128.592 6.840C128.784 6.408 128.808 6.144 128.664 6.048C128.520 5.952 128.292 5.988 127.980 6.156C127.668 6.324 127.404 6.504 127.188 6.696C126.972 6.888 126.660 7.116 126.252 7.380C125.844 7.644 125.352 7.716 124.776 7.596C124.200 7.476 123.768 7.104 123.480 6.480C122.904 5.520 122.616 4.224 122.616 2.592C122.616 0.960 123.048-1.512 123.912-4.824C124.776-8.136 125.976-11.568 127.512-15.120C127.944-15.504 130.176-17.316 134.208-20.556C138.240-23.796 141.336-26.520 143.496-28.728C145.656-30.936 147.252-32.964 148.284-34.812C149.316-36.660 149.832-38.184 149.832-39.384C149.832-39.816 149.664-40.320 149.328-40.896C148.608-42.048 147.240-42.624 145.224-42.624C139.224-42.624 132.936-34.992 126.360-19.728C125.208-20.592 123.984-21.024 122.688-21.024C121.392-21.024 120.072-20.856 118.728-20.520C117.384-20.184 115.560-19.344 113.256-18.000ZM125.784-18.576L124.776-16.128C120.600-11.664 115.848-7.248 110.520-2.880C108.456-1.248 106.920-0.432 105.912-0.432C104.904-0.432 104.400-1.320 104.400-3.096C104.400-4.008 105.036-5.460 106.308-7.452C107.580-9.444 109.056-11.232 110.736-12.816C112.752-14.592 114.900-16.068 117.180-17.244C119.460-18.420 121.320-19.008 122.760-19.008C124.200-19.008 125.208-18.864 125.784-18.576ZM146.880-36.720C145.344-33.840 142.872-30.720 139.464-27.360C136.056-24.000 132.792-21.312 129.672-19.296C133.944-28.752 138.720-35.496 144.000-39.528C145.152-40.392 146.076-40.824 146.772-40.824C147.468-40.824 147.816-40.428 147.816-39.636C147.816-38.844 147.504-37.872 146.880-36.720Z"></path><path d="M133.992 0.792C135.672 0.792 137.556-0.048 139.644-1.728C141.732-3.408 143.568-5.160 145.152-6.984C146.736-8.808 147.624-9.768 147.816-9.864C146.904-7.464 146.448-5.184 146.448-3.024C146.448-2.304 146.520-1.656 146.664-1.080C147.288 0.744 148.512 1.656 150.336 1.656C152.256 1.656 154.344 0.816 156.600-0.864C157.800-1.728 159.540-3.372 161.820-5.796C164.100-8.220 165.240-9.792 165.240-10.512C165.240-10.608 165.120-10.716 164.880-10.836C164.640-10.956 164.424-10.896 164.232-10.656C162.888-8.736 161.100-6.768 158.868-4.752C156.636-2.736 154.896-1.392 153.648-0.720C152.400-0.048 151.416-0.096 150.696-0.864C150.312-1.296 150.120-1.848 150.120-2.520C150.120-3.192 150.144-3.744 150.192-4.176C150.624-7.680 152.064-11.160 154.512-14.616C154.800-15.096 154.536-15.504 153.720-15.840C152.904-16.176 152.208-16.344 151.632-16.344C151.296-16.344 148.920-13.968 144.504-9.216C143.256-7.872 140.928-5.760 137.520-2.880C135.456-1.248 133.920-0.432 132.912-0.432C131.904-0.432 131.400-1.320 131.400-3.096C131.400-4.008 132.036-5.460 133.308-7.452C134.580-9.444 136.056-11.232 137.736-12.816C139.752-14.592 141.900-16.068 144.180-17.244C146.460-18.420 148.500-19.008 150.300-19.008C152.100-19.008 153.288-18.552 153.864-17.640C154.056-17.544 154.176-17.520 154.224-17.568C154.272-17.616 154.296-17.760 154.296-18.000C154.296-18.720 153.840-19.404 152.928-20.052C152.016-20.700 150.924-21.024 149.652-21.024C148.380-21.024 147.072-20.856 145.728-20.520C144.384-20.184 142.560-19.344 140.256-18.000C137.952-16.656 135.732-15.036 133.596-13.140C131.460-11.244 129.912-9.288 128.952-7.272C128.520-6.408 128.304-5.496 128.304-4.536C128.304-3.576 128.616-2.676 129.240-1.836C129.864-0.996 130.620-0.348 131.508 0.108C132.396 0.564 133.224 0.792 133.992 0.792Z"></path><path d="M161.352 27.432C164.856 27.432 168.408 24.768 172.008 19.440C173.400 17.280 176.136 12.000 180.216 3.600C182.136 2.544 184.728 0.528 187.992-2.448C191.256-5.424 193.632-7.896 195.120-9.864C195.408-10.248 195.552-10.548 195.552-10.764C195.552-10.980 195.528-11.136 195.480-11.232C195.336-11.712 195.024-11.664 194.544-11.088C192.624-8.688 190.284-6.324 187.524-3.996C184.764-1.668 182.808-0.192 181.656 0.432C182.712-1.824 184.404-5.556 186.732-10.764C189.060-15.972 190.284-18.696 190.404-18.936C190.524-19.176 190.176-19.512 189.360-19.944C188.544-20.376 187.752-20.592 186.984-20.592C186.360-20.592 185.748-20.208 185.148-19.440C184.548-18.672 183.300-17.064 181.404-14.616C179.508-12.168 177.816-10.068 176.328-8.316C174.840-6.564 173.280-4.896 171.648-3.312C170.016-1.728 168.456-0.936 166.968-0.936C166.536-0.936 166.116-1.092 165.708-1.404C165.300-1.716 165.096-2.124 165.096-2.628C165.096-3.132 165.120-3.552 165.168-3.888C165.648-6.384 166.512-8.448 167.760-10.080C170.112-13.104 172.200-15.144 174.024-16.200C174.264-16.680 174.072-17.256 173.448-17.928C172.872-18.360 172.236-18.576 171.540-18.576C170.844-18.576 170.040-18.144 169.128-17.280C166.680-15.168 164.736-12.648 163.296-9.720C162.336-7.944 161.856-6.168 161.856-4.392C161.856-3.864 161.904-3.216 162.000-2.448C162.096-1.680 162.564-0.948 163.404-0.252C164.244 0.444 165.432 0.792 166.968 0.792C168.504 0.792 170.184 0.096 172.008-1.296C173.832-2.688 175.392-4.164 176.688-5.724C177.984-7.284 179.472-9.180 181.152-11.412C182.832-13.644 183.960-15.096 184.536-15.768C183.336-12.072 180.480-5.616 175.968 3.600C167.856 8.976 162.540 13.128 160.020 16.056C157.500 18.984 156.240 21.420 156.240 23.364C156.240 25.308 157.464 26.592 159.912 27.216C160.488 27.360 160.968 27.432 161.352 27.432ZM174.600 6.336C174.216 7.104 173.496 8.628 172.440 10.908C171.384 13.188 170.556 14.916 169.956 16.092C169.356 17.268 168.480 18.672 167.328 20.304C166.176 21.936 164.976 23.244 163.728 24.228C162.480 25.212 161.376 25.704 160.416 25.704C159.168 25.704 158.544 24.804 158.544 23.004C158.544 21.204 159.780 19.056 162.252 16.560C164.724 14.064 168.840 10.656 174.600 6.336Z"></path></g></g></svg>