<svg viewBox="0 -41.99999999999999 413.4221311475411 100" xmlns="http://www.w3.org/2000/svg" xmlns:xlink="http://www.w3.org/1999/xlink" version="1.1" class="jsx-2263963463 artboard-inner" style="width: 231px; height: 55.8751px; max-height: 100%;"><g transform="translate(-1.3319672131147544 18.963114754098378) scale(1.4230418943533698)" fill="#FFFFFF"><g id="line1"><path d="M6.624 6.552C11.280 6.552 16.296 4.560 21.672 0.576C24.792-1.584 28.140-4.356 31.716-7.740C35.292-11.124 38.256-14.304 40.608-17.280C40.560-16.656 40.536-16.056 40.536-15.480C40.536-10.776 41.796-6.528 44.316-2.736C46.836 1.056 49.992 2.952 53.784 2.952L53.928 2.952C57.432 2.952 60.648 1.200 63.576-2.304C66.504-5.808 68.592-9.840 69.840-14.400C70.704-17.520 71.136-20.592 71.136-23.616C71.136-30.672 69.288-35.400 65.592-37.800C64.104-38.856 62.208-39.384 59.904-39.384C57.600-39.384 55.176-38.448 52.632-36.576C52.344-36.336 52.320-36.024 52.560-35.640C52.800-35.256 53.184-35.232 53.712-35.568C55.008-36.528 56.568-37.008 58.392-37.008C60.600-37.008 62.496-36.168 64.080-34.488C66.768-31.608 68.112-27.120 68.112-21.024C68.112-14.304 66.408-8.616 63.000-3.960C60.936-1.176 58.560 0.216 55.872 0.216C52.752 0.216 50.004-1.944 47.628-6.264C45.252-10.584 44.064-15.432 44.064-20.808L44.064-21.456C45.504-24.432 46.224-27.768 46.224-31.464L46.224-32.760L46.080-34.056C45.888-35.160 45.480-35.712 44.856-35.712C44.376-35.712 43.668-35.280 42.732-34.416C41.796-33.552 41.256-32.616 41.112-31.608C40.824-29.736 40.680-27.840 40.680-25.920C40.680-24.000 40.704-22.368 40.752-21.024C35.040-12.960 28.080-6.072 19.872-0.360C14.544 3.192 10.680 4.968 8.280 4.968C6.744 4.968 5.976 4.176 5.976 2.592C5.976-0.960 10.320-9.144 19.008-21.960C23.040-27.960 25.800-33.120 27.288-37.440C28.248-37.344 29.196-37.140 30.132-36.828C31.068-36.516 31.752-36.360 32.184-36.360C32.904-36.312 33.048-36.636 32.616-37.332C32.184-38.028 31.524-38.556 30.636-38.916C29.748-39.276 28.872-39.576 28.008-39.816C28.152-40.536 28.176-41.160 28.080-41.688C27.792-42.456 27.384-42.840 26.856-42.840C26.808-42.840 26.736-42.816 26.640-42.768C26.112-42.672 25.944-42.408 26.136-41.976C26.328-41.544 26.352-40.968 26.208-40.248C24.336-40.680 22.044-40.896 19.332-40.896C16.620-40.896 13.536-40.512 10.080-39.744C7.536-39.168 5.460-38.124 3.852-36.612C2.244-35.100 1.440-33.312 1.440-31.248C1.440-30.912 1.536-30.504 1.728-30.024C1.776-28.536 2.448-27.216 3.744-26.064C5.040-24.912 6.240-24.216 7.344-23.976C7.536-23.928 7.704-23.904 7.848-23.904C8.232-24.000 8.136-24.264 7.560-24.696C6.600-25.176 5.736-25.656 4.968-26.136C4.584-26.376 4.200-26.784 3.816-27.360C3.432-27.936 3.240-28.560 3.240-29.232C3.240-31.296 4.416-33.024 6.768-34.416C10.560-36.672 15.312-37.800 21.024-37.800C22.656-37.800 24.024-37.752 25.128-37.656C23.880-35.160 20.688-30.240 15.552-22.896C14.784-21.744 13.488-19.812 11.664-17.100C9.840-14.388 8.280-12.036 6.984-10.044C5.688-8.052 4.356-5.892 2.988-3.564C1.620-1.236 0.936 0.792 0.936 2.520C0.936 5.208 2.832 6.552 6.624 6.552Z"></path><path d="M92.232-20.952C89.928-20.952 86.808-19.512 82.872-16.632C78.936-13.752 76.368-10.944 75.168-8.208C74.544-6.624 74.232-5.256 74.232-4.104C74.232-2.952 74.496-1.968 75.024-1.152C76.416 0.912 78.840 1.944 82.296 1.944C86.328 1.944 90.480 0.120 94.752-3.528C96.960-5.400 98.784-7.536 100.224-9.936C100.368-10.128 100.440-10.296 100.440-10.440C100.440-10.584 100.344-10.704 100.152-10.800C99.912-11.040 99.648-10.968 99.360-10.584C96.432-6.120 92.256-2.784 86.832-0.576C84.960 0.192 83.304 0.576 81.864 0.576C80.568 0.576 79.608 0.240 78.984-0.432C78.360-1.104 78.048-1.812 78.048-2.556C78.048-3.300 78.168-4.056 78.408-4.824C79.176-7.320 80.808-9.876 83.304-12.492C85.800-15.108 88.176-16.944 90.432-18.000C91.488-18.528 92.328-18.792 92.952-18.792C93.720-18.792 94.104-18.396 94.104-17.604C94.104-16.812 93.792-15.984 93.168-15.120C91.680-13.296 89.328-11.520 86.112-9.792C84.384-8.832 82.968-8.304 81.864-8.208C81.768-8.208 81.636-8.184 81.468-8.136C81.300-8.088 81.240-7.968 81.288-7.776C81.336-7.344 81.696-7.152 82.368-7.200C84.240-7.344 86.520-8.076 89.208-9.396C91.896-10.716 93.840-12.264 95.040-14.040C95.760-14.856 96.120-15.912 96.120-17.208C96.120-19.704 94.824-20.952 92.232-20.952Z"></path><path d="M108.432-18.000C106.128-16.656 103.908-15.036 101.772-13.140C99.636-11.244 98.088-9.288 97.128-7.272C96.696-6.408 96.480-5.496 96.480-4.536C96.480-3.576 96.792-2.676 97.416-1.836C98.040-0.996 98.796-0.348 99.684 0.108C100.572 0.564 101.400 0.792 102.168 0.792C105.384 0.792 110.832-3.672 118.512-12.600C117.648-10.392 116.688-7.608 115.632-4.248C114.864-1.800 114.480 0.864 114.480 3.744C114.480 6.720 115.632 8.400 117.936 8.784C118.272 8.832 118.956 8.856 119.988 8.856C121.020 8.856 121.920 8.592 122.688 8.064C123.024 7.728 123.384 7.320 123.768 6.840C123.960 6.408 123.984 6.144 123.840 6.048C123.696 5.952 123.468 5.988 123.156 6.156C122.844 6.324 122.580 6.504 122.364 6.696C122.148 6.888 121.836 7.116 121.428 7.380C121.020 7.644 120.528 7.716 119.952 7.596C119.376 7.476 118.944 7.104 118.656 6.480C118.080 5.520 117.792 4.224 117.792 2.592C117.792 0.960 118.224-1.512 119.088-4.824C119.952-8.136 121.152-11.568 122.688-15.120C123.120-15.504 125.352-17.316 129.384-20.556C133.416-23.796 136.512-26.520 138.672-28.728C140.832-30.936 142.428-32.964 143.460-34.812C144.492-36.660 145.008-38.184 145.008-39.384C145.008-39.816 144.840-40.320 144.504-40.896C143.784-42.048 142.416-42.624 140.400-42.624C134.400-42.624 128.112-34.992 121.536-19.728C120.384-20.592 119.160-21.024 117.864-21.024C116.568-21.024 115.248-20.856 113.904-20.520C112.560-20.184 110.736-19.344 108.432-18.000ZM120.960-18.576L119.952-16.128C115.776-11.664 111.024-7.248 105.696-2.880C103.632-1.248 102.096-0.432 101.088-0.432C100.080-0.432 99.576-1.320 99.576-3.096C99.576-4.008 100.212-5.460 101.484-7.452C102.756-9.444 104.232-11.232 105.912-12.816C107.928-14.592 110.076-16.068 112.356-17.244C114.636-18.420 116.496-19.008 117.936-19.008C119.376-19.008 120.384-18.864 120.960-18.576ZM142.056-36.720C140.520-33.840 138.048-30.720 134.640-27.360C131.232-24.000 127.968-21.312 124.848-19.296C129.120-28.752 133.896-35.496 139.176-39.528C140.328-40.392 141.252-40.824 141.948-40.824C142.644-40.824 142.992-40.428 142.992-39.636C142.992-38.844 142.680-37.872 142.056-36.720Z"></path><path d="M145.584-20.448C144.432-20.448 142.944-19.800 141.120-18.504C139.296-17.064 137.064-14.964 134.424-12.204C131.784-9.444 129.600-7.008 127.872-4.896C130.368-11.520 131.880-15.396 132.408-16.524C132.936-17.652 133.200-18.384 133.200-18.720C133.200-19.200 132.864-19.500 132.192-19.620C131.520-19.740 130.968-19.788 130.536-19.764C130.104-19.740 129.756-19.548 129.492-19.188C129.228-18.828 129.048-18.504 128.952-18.216C128.856-17.928 128.772-17.580 128.700-17.172C128.628-16.764 128.484-16.272 128.268-15.696C128.052-15.120 127.452-13.428 126.468-10.620C125.484-7.812 124.572-5.232 123.732-2.880C122.892-0.528 122.424 0.780 122.328 1.044C122.232 1.308 122.184 1.512 122.184 1.656C122.184 1.800 122.400 1.872 122.832 1.872C123.264 1.872 124.344 1.440 126.072 0.576C126.456 0.336 128.100-1.716 131.004-5.580C133.908-9.444 136.104-12.072 137.592-13.464C139.752-15.336 141.216-16.272 141.984-16.272C142.368-16.272 142.560-16.092 142.560-15.732C142.560-15.372 142.236-14.616 141.588-13.464C140.940-12.312 140.184-10.704 139.320-8.640C138.792-7.344 138.432-6.204 138.240-5.220C138.048-4.236 137.952-3.216 137.952-2.160C137.952-1.104 138.288-0.228 138.960 0.468C139.632 1.164 140.784 1.536 142.416 1.584C144.096 1.584 145.800 0.972 147.528-0.252C149.256-1.476 151.056-3.096 152.928-5.112C154.800-7.128 156.096-8.784 156.816-10.080C156.912-10.224 156.960-10.356 156.960-10.476C156.960-10.596 156.828-10.716 156.564-10.836C156.300-10.956 156.072-10.896 155.880-10.656C154.536-8.736 152.748-6.780 150.516-4.788C148.284-2.796 146.544-1.452 145.296-0.756C144.048-0.060 143.064-0.096 142.344-0.864C141.960-1.296 141.768-2.172 141.768-3.492C141.768-4.812 142.224-6.576 143.136-8.784C143.664-10.080 144.480-11.760 145.584-13.824C146.688-15.888 147.240-17.508 147.240-18.684C147.240-19.860 146.688-20.448 145.584-20.448Z"></path><path d="M171.648-20.952C169.344-20.952 166.224-19.512 162.288-16.632C158.352-13.752 155.784-10.944 154.584-8.208C153.960-6.624 153.648-5.256 153.648-4.104C153.648-2.952 153.912-1.968 154.440-1.152C155.832 0.912 158.256 1.944 161.712 1.944C165.744 1.944 169.896 0.120 174.168-3.528C176.376-5.400 178.200-7.536 179.640-9.936C179.784-10.128 179.856-10.296 179.856-10.440C179.856-10.584 179.760-10.704 179.568-10.800C179.328-11.040 179.064-10.968 178.776-10.584C175.848-6.120 171.672-2.784 166.248-0.576C164.376 0.192 162.720 0.576 161.280 0.576C159.984 0.576 159.024 0.240 158.400-0.432C157.776-1.104 157.464-1.812 157.464-2.556C157.464-3.300 157.584-4.056 157.824-4.824C158.592-7.320 160.224-9.876 162.720-12.492C165.216-15.108 167.592-16.944 169.848-18.000C170.904-18.528 171.744-18.792 172.368-18.792C173.136-18.792 173.520-18.396 173.520-17.604C173.520-16.812 173.208-15.984 172.584-15.120C171.096-13.296 168.744-11.520 165.528-9.792C163.800-8.832 162.384-8.304 161.280-8.208C161.184-8.208 161.052-8.184 160.884-8.136C160.716-8.088 160.656-7.968 160.704-7.776C160.752-7.344 161.112-7.152 161.784-7.200C163.656-7.344 165.936-8.076 168.624-9.396C171.312-10.716 173.256-12.264 174.456-14.040C175.176-14.856 175.536-15.912 175.536-17.208C175.536-19.704 174.240-20.952 171.648-20.952Z"></path><path d="M178.704 0.720C179.232 0 179.724-0.456 180.180-0.648C180.636-0.840 180.888-1.008 180.936-1.152C180.984-1.296 180.960-1.416 180.864-1.512C180.768-1.608 180.648-1.632 180.504-1.584C178.920-0.912 177.768-0.216 177.048 0.504C176.280 1.416 175.896 2.076 175.896 2.484C175.896 2.892 175.968 3.192 176.112 3.384C176.496 4.152 177.204 4.536 178.236 4.536C179.268 4.536 180.288 4.416 181.296 4.176C185.760 3.168 189.120 1.416 191.376-1.080C192.960-2.808 193.632-4.392 193.392-5.832C193.344-6.360 192.984-6.936 192.312-7.560C191.640-8.184 191.064-8.640 190.584-8.928C190.104-9.216 189.288-9.672 188.136-10.296C186.984-10.920 186.168-11.376 185.688-11.664C184.536-12.336 183.960-13.092 183.960-13.932C183.960-14.772 184.272-15.600 184.896-16.416C186.480-18.624 188.676-20.424 191.484-21.816C194.292-23.208 196.632-23.904 198.504-23.904L198.936-23.904C199.848-23.712 200.232-23.184 200.088-22.320C199.944-21.456 199.620-20.772 199.116-20.268C198.612-19.764 198.408-19.368 198.504-19.080C198.696-18.792 198.936-18.744 199.224-18.936C200.328-19.656 201.060-20.424 201.420-21.240C201.780-22.056 201.960-22.776 201.960-23.400C201.960-24.024 201.588-24.660 200.844-25.308C200.100-25.956 198.816-26.280 196.992-26.280C194.112-26.280 190.920-25.224 187.416-23.112C183.912-21.000 181.992-18.624 181.656-15.984C181.032-14.160 179.736-11.904 177.768-9.216C177.528-8.832 177.552-8.532 177.840-8.316C178.128-8.100 178.440-8.184 178.776-8.568C180.264-10.728 181.344-12.384 182.016-13.536C182.352-12.672 183.168-11.808 184.464-10.944C184.608-10.848 185.232-10.512 186.336-9.936C188.688-8.688 189.864-7.536 189.864-6.480C189.864-4.560 188.892-2.676 186.948-0.828C185.004 1.020 183.000 2.256 180.936 2.880C180.456 3.024 179.988 3.096 179.532 3.096C179.076 3.096 178.668 2.880 178.308 2.448C177.948 2.016 178.080 1.440 178.704 0.720Z"></path><path d="M209.160-18.000C206.856-16.656 204.636-15.036 202.500-13.140C200.364-11.244 198.816-9.288 197.856-7.272C197.424-6.408 197.208-5.496 197.208-4.536C197.208-3.576 197.520-2.676 198.144-1.836C198.768-0.996 199.524-0.348 200.412 0.108C201.300 0.564 202.128 0.792 202.896 0.792C206.112 0.792 211.560-3.672 219.240-12.600C218.376-10.392 217.416-7.608 216.360-4.248C215.592-1.800 215.208 0.864 215.208 3.744C215.208 6.720 216.360 8.400 218.664 8.784C219.000 8.832 219.684 8.856 220.716 8.856C221.748 8.856 222.648 8.592 223.416 8.064C223.752 7.728 224.112 7.320 224.496 6.840C224.688 6.408 224.712 6.144 224.568 6.048C224.424 5.952 224.196 5.988 223.884 6.156C223.572 6.324 223.308 6.504 223.092 6.696C222.876 6.888 222.564 7.116 222.156 7.380C221.748 7.644 221.256 7.716 220.680 7.596C220.104 7.476 219.672 7.104 219.384 6.480C218.808 5.520 218.520 4.224 218.520 2.592C218.520 0.960 218.952-1.512 219.816-4.824C220.680-8.136 221.880-11.568 223.416-15.120C223.848-15.504 226.080-17.316 230.112-20.556C234.144-23.796 237.240-26.520 239.400-28.728C241.560-30.936 243.156-32.964 244.188-34.812C245.220-36.660 245.736-38.184 245.736-39.384C245.736-39.816 245.568-40.320 245.232-40.896C244.512-42.048 243.144-42.624 241.128-42.624C235.128-42.624 228.840-34.992 222.264-19.728C221.112-20.592 219.888-21.024 218.592-21.024C217.296-21.024 215.976-20.856 214.632-20.520C213.288-20.184 211.464-19.344 209.160-18.000ZM221.688-18.576L220.680-16.128C216.504-11.664 211.752-7.248 206.424-2.880C204.360-1.248 202.824-0.432 201.816-0.432C200.808-0.432 200.304-1.320 200.304-3.096C200.304-4.008 200.940-5.460 202.212-7.452C203.484-9.444 204.960-11.232 206.640-12.816C208.656-14.592 210.804-16.068 213.084-17.244C215.364-18.420 217.224-19.008 218.664-19.008C220.104-19.008 221.112-18.864 221.688-18.576ZM242.784-36.720C241.248-33.840 238.776-30.720 235.368-27.360C231.960-24.000 228.696-21.312 225.576-19.296C229.848-28.752 234.624-35.496 239.904-39.528C241.056-40.392 241.980-40.824 242.676-40.824C243.372-40.824 243.720-40.428 243.720-39.636C243.720-38.844 243.408-37.872 242.784-36.720Z"></path><path d="M229.896 0.792C231.576 0.792 233.460-0.048 235.548-1.728C237.636-3.408 239.472-5.160 241.056-6.984C242.640-8.808 243.528-9.768 243.720-9.864C242.808-7.464 242.352-5.184 242.352-3.024C242.352-2.304 242.424-1.656 242.568-1.080C243.192 0.744 244.416 1.656 246.240 1.656C248.160 1.656 250.248 0.816 252.504-0.864C253.704-1.728 255.444-3.372 257.724-5.796C260.004-8.220 261.144-9.792 261.144-10.512C261.144-10.608 261.024-10.716 260.784-10.836C260.544-10.956 260.328-10.896 260.136-10.656C258.792-8.736 257.004-6.768 254.772-4.752C252.540-2.736 250.800-1.392 249.552-0.720C248.304-0.048 247.320-0.096 246.600-0.864C246.216-1.296 246.024-1.848 246.024-2.520C246.024-3.192 246.048-3.744 246.096-4.176C246.528-7.680 247.968-11.160 250.416-14.616C250.704-15.096 250.440-15.504 249.624-15.840C248.808-16.176 248.112-16.344 247.536-16.344C247.200-16.344 244.824-13.968 240.408-9.216C239.160-7.872 236.832-5.760 233.424-2.880C231.360-1.248 229.824-0.432 228.816-0.432C227.808-0.432 227.304-1.320 227.304-3.096C227.304-4.008 227.940-5.460 229.212-7.452C230.484-9.444 231.960-11.232 233.640-12.816C235.656-14.592 237.804-16.068 240.084-17.244C242.364-18.420 244.404-19.008 246.204-19.008C248.004-19.008 249.192-18.552 249.768-17.640C249.960-17.544 250.080-17.520 250.128-17.568C250.176-17.616 250.200-17.760 250.200-18.000C250.200-18.720 249.744-19.404 248.832-20.052C247.920-20.700 246.828-21.024 245.556-21.024C244.284-21.024 242.976-20.856 241.632-20.520C240.288-20.184 238.464-19.344 236.160-18.000C233.856-16.656 231.636-15.036 229.500-13.140C227.364-11.244 225.816-9.288 224.856-7.272C224.424-6.408 224.208-5.496 224.208-4.536C224.208-3.576 224.520-2.676 225.144-1.836C225.768-0.996 226.524-0.348 227.412 0.108C228.300 0.564 229.128 0.792 229.896 0.792Z"></path><path d="M257.256 27.432C260.760 27.432 264.312 24.768 267.912 19.440C269.304 17.280 272.040 12.000 276.120 3.600C278.040 2.544 280.632 0.528 283.896-2.448C287.160-5.424 289.536-7.896 291.024-9.864C291.312-10.248 291.456-10.548 291.456-10.764C291.456-10.980 291.432-11.136 291.384-11.232C291.240-11.712 290.928-11.664 290.448-11.088C288.528-8.688 286.188-6.324 283.428-3.996C280.668-1.668 278.712-0.192 277.560 0.432C278.616-1.824 280.308-5.556 282.636-10.764C284.964-15.972 286.188-18.696 286.308-18.936C286.428-19.176 286.080-19.512 285.264-19.944C284.448-20.376 283.656-20.592 282.888-20.592C282.264-20.592 281.652-20.208 281.052-19.440C280.452-18.672 279.204-17.064 277.308-14.616C275.412-12.168 273.720-10.068 272.232-8.316C270.744-6.564 269.184-4.896 267.552-3.312C265.920-1.728 264.360-0.936 262.872-0.936C262.440-0.936 262.020-1.092 261.612-1.404C261.204-1.716 261.000-2.124 261.000-2.628C261.000-3.132 261.024-3.552 261.072-3.888C261.552-6.384 262.416-8.448 263.664-10.080C266.016-13.104 268.104-15.144 269.928-16.200C270.168-16.680 269.976-17.256 269.352-17.928C268.776-18.360 268.140-18.576 267.444-18.576C266.748-18.576 265.944-18.144 265.032-17.280C262.584-15.168 260.640-12.648 259.200-9.720C258.240-7.944 257.760-6.168 257.760-4.392C257.760-3.864 257.808-3.216 257.904-2.448C258.000-1.680 258.468-0.948 259.308-0.252C260.148 0.444 261.336 0.792 262.872 0.792C264.408 0.792 266.088 0.096 267.912-1.296C269.736-2.688 271.296-4.164 272.592-5.724C273.888-7.284 275.376-9.180 277.056-11.412C278.736-13.644 279.864-15.096 280.440-15.768C279.240-12.072 276.384-5.616 271.872 3.600C263.760 8.976 258.444 13.128 255.924 16.056C253.404 18.984 252.144 21.420 252.144 23.364C252.144 25.308 253.368 26.592 255.816 27.216C256.392 27.360 256.872 27.432 257.256 27.432ZM270.504 6.336C270.120 7.104 269.400 8.628 268.344 10.908C267.288 13.188 266.460 14.916 265.860 16.092C265.260 17.268 264.384 18.672 263.232 20.304C262.080 21.936 260.880 23.244 259.632 24.228C258.384 25.212 257.280 25.704 256.320 25.704C255.072 25.704 254.448 24.804 254.448 23.004C254.448 21.204 255.684 19.056 258.156 16.560C260.628 14.064 264.744 10.656 270.504 6.336Z"></path></g></g></svg>