<svg t="1688226728629" class="icon" viewBox="0 0 1024 1024" version="1.1" xmlns="http://www.w3.org/2000/svg" p-id="10256" width="200" height="200"><path d="M947.2 330.752c-24.064-58.88-58.88-111.616-103.936-156.672s-97.792-80.384-156.672-103.936C629.76 47.616 569.856 35.84 508.416 35.84c-61.44 0-121.344 11.776-178.176 34.816C271.872 94.208 219.136 129.024 174.08 174.592c-45.056 45.056-80.384 97.792-103.936 156.672-23.04 56.32-34.816 116.224-34.816 177.664s11.776 121.344 34.816 178.176c24.064 58.88 58.88 111.616 103.936 156.672s97.792 80.384 156.672 103.936c56.832 23.04 116.736 34.816 178.176 34.816 61.44 0 121.344-11.776 178.176-34.816 58.88-24.064 111.616-58.88 156.672-103.936s79.872-97.792 103.936-156.672c23.04-56.832 34.816-116.736 34.816-178.176-0.512-61.44-12.288-121.344-35.328-178.176z m-202.24 422.4c-8.192 8.192-18.432 12.288-29.184 12.288s-20.992-4.096-29.184-12.288L506.88 572.928l-177.664 177.664c-8.192 8.192-18.432 12.288-29.184 12.288s-20.992-4.096-29.184-12.288c-15.872-15.872-15.872-41.984 0-58.368l177.664-177.664-174.592-174.592c-15.872-15.872-15.872-41.984 0-58.368 15.872-15.872 41.984-15.872 58.368 0L506.88 456.704l177.152-177.152c15.872-15.872 41.984-15.872 58.368 0 15.872 15.872 15.872 41.984 0 58.368l-177.152 177.152 180.224 180.224c15.872 15.872 15.872 41.984-0.512 57.856z" fill="#dbdbdb" p-id="10257"></path></svg>