<?xml version="1.0" encoding="UTF-8" standalone="no"?>
<!DOCTYPE svg PUBLIC "-//W3C//DTD SVG 1.1//EN" "http://www.w3.org/Graphics/SVG/1.1/DTD/svg11.dtd">
<svg xmlns="http://www.w3.org/2000/svg" version="1.1" viewBox="0.00 0.00 183.00 177.00">
<g stroke-width="2.00" fill="none" stroke-linecap="butt">
<path stroke="#3a642d" vector-effect="non-scaling-stroke" d="
  M 105.70 121.38
  L 101.51 113.04
  A 0.67 0.66 68.3 0 0 100.74 112.70
  Q 92.03 115.31 83.15 113.42
  A 2.80 2.78 -6.7 0 1 81.23 111.91
  L 76.41 102.04
  Q 76.17 101.55 75.66 101.37
  C 70.20 99.42 61.35 97.09 57.61 93.56
  C 47.55 84.07 59.20 72.35 63.72 86.10
  Q 63.90 86.65 64.45 86.85
  L 81.82 93.22
  Q 83.14 93.70 83.77 94.97
  L 88.05 103.61
  A 1.71 1.68 -13.9 0 0 89.62 104.54
  Q 95.92 104.31 101.41 102.04
  C 107.98 99.33 110.00 108.03 112.10 112.21
  A 1.87 1.84 -12.2 0 0 113.69 113.22
  Q 119.61 113.43 125.27 110.86
  C 132.03 107.78 134.32 117.26 136.61 121.52
  Q 136.86 121.98 137.38 121.99
  C 139.87 122.04 149.04 121.38 150.08 118.57
  Q 155.86 103.11 167.46 70.85
  C 169.73 64.55 167.33 61.10 161.21 58.86
  Q 108.59 39.68 55.92 20.60
  C 48.63 17.96 45.74 24.68 43.91 30.50
  Q 43.77 30.96 44.23 31.11
  C 53.49 34.16 48.97 46.39 40.02 42.79
  A 0.62 0.62 0.0 0 0 39.20 43.15
  L 34.91 55.17
  A 0.50 0.50 0.0 0 0 35.22 55.80
  C 44.28 58.85 40.20 70.95 30.97 67.52
  Q 30.48 67.34 30.29 67.84
  L 25.95 79.74
  Q 25.74 80.30 26.31 80.51
  C 32.65 82.80 33.35 91.20 26.50 92.76
  C 25.04 93.09 23.39 92.55 21.85 92.24
  Q 21.32 92.14 21.16 92.65
  C 19.09 98.93 16.62 105.05 24.93 108.08
  Q 77.94 127.42 131.01 146.59
  C 140.97 150.19 143.15 137.95 145.36 131.70
  Q 145.56 131.13 144.96 131.23
  Q 137.72 132.48 130.61 130.70
  A 1.36 1.35 -6.4 0 1 129.73 130.00
  L 125.68 121.78
  Q 125.46 121.33 124.98 121.46
  Q 115.80 123.89 106.48 121.98
  A 1.12 1.11 -7.1 0 1 105.70 121.38"
/>
<path stroke="#3a642d" vector-effect="non-scaling-stroke" d="
  M 93.64 57.80
  C 99.55 64.31 106.05 55.74 101.58 51.92
  Q 86.45 38.99 64.82 37.73
  C 56.54 37.25 56.67 48.49 64.68 47.48
  A 0.45 0.44 -80.4 0 1 65.13 48.12
  C 56.17 66.35 85.68 79.14 92.86 57.96
  A 0.46 0.46 0.0 0 1 93.64 57.80"
/>
<path stroke="#3a642d" vector-effect="non-scaling-stroke" d="
  M 154.19 81.69
  C 155.58 74.56 151.43 65.10 143.48 63.51
  C 138.10 62.43 135.51 69.55 140.09 72.44
  Q 143.16 74.38 143.46 74.75
  C 145.83 77.67 144.12 79.63 144.17 82.46
  C 144.29 88.53 152.85 88.64 154.19 81.69"
/>
<path stroke="#7f7f7f" vector-effect="non-scaling-stroke" d="
  M 83.5536 54.8886
  A 5.03 3.98 20.1 0 0 80.1978 49.4224
  A 5.03 3.98 20.1 0 0 74.1064 51.4314
  A 5.03 3.98 20.1 0 0 77.4622 56.8976
  A 5.03 3.98 20.1 0 0 83.5536 54.8886"
/>
</g>
<path fill="#000000" d="
  M 123.24 31.73
  Q 123.80 31.85 124.58 32.15
  Q 132.89 35.29 161.45 45.49
  Q 169.95 48.52 173.37 51.28
  Q 184.63 60.37 178.57 77.07
  Q 166.60 110.06 154.51 143.01
  C 152.42 148.72 150.59 152.87 145.48 156.23
  C 135.88 162.54 128.88 159.07 117.16 154.90
  Q 107.73 151.55 98.26 148.03
  A 1.41 1.41 0.0 0 0 96.45 148.84
  Q 94.05 155.11 91.73 161.73
  C 89.05 169.38 81.26 173.41 73.71 170.63
  Q 70.97 169.62 66.99 165.90
  Q 41.75 142.33 16.52 118.75
  C 7.30 110.12 3.05 101.86 9.23 89.52
  A 1.55 1.54 26.5 0 0 8.53 87.44
  C 0.41 83.48 4.71 72.73 13.32 75.75
  A 0.76 0.75 19.5 0 0 14.29 75.29
  L 18.29 64.20
  A 1.32 1.32 0.0 0 0 17.42 62.49
  C 9.53 60.16 13.08 48.46 21.85 50.67
  A 1.34 1.34 0.0 0 0 23.43 49.84
  L 27.37 39.37
  Q 27.56 38.85 27.12 38.50
  Q 26.36 37.91 25.07 37.18
  C 19.81 34.23 21.96 25.49 28.59 25.84
  Q 29.95 25.91 31.08 26.03
  Q 32.16 26.15 32.48 25.11
  Q 37.79 7.43 54.02 7.79
  C 60.77 7.94 69.26 11.72 76.08 14.40
  Q 94.38 21.60 99.74 23.25
  Q 111.26 26.80 122.36 31.45
  A 5.35 5.03 60.8 0 0 123.24 31.73
  Z
  M 105.70 121.38
  L 101.51 113.04
  A 0.67 0.66 68.3 0 0 100.74 112.70
  Q 92.03 115.31 83.15 113.42
  A 2.80 2.78 -6.7 0 1 81.23 111.91
  L 76.41 102.04
  Q 76.17 101.55 75.66 101.37
  C 70.20 99.42 61.35 97.09 57.61 93.56
  C 47.55 84.07 59.20 72.35 63.72 86.10
  Q 63.90 86.65 64.45 86.85
  L 81.82 93.22
  Q 83.14 93.70 83.77 94.97
  L 88.05 103.61
  A 1.71 1.68 -13.9 0 0 89.62 104.54
  Q 95.92 104.31 101.41 102.04
  C 107.98 99.33 110.00 108.03 112.10 112.21
  A 1.87 1.84 -12.2 0 0 113.69 113.22
  Q 119.61 113.43 125.27 110.86
  C 132.03 107.78 134.32 117.26 136.61 121.52
  Q 136.86 121.98 137.38 121.99
  C 139.87 122.04 149.04 121.38 150.08 118.57
  Q 155.86 103.11 167.46 70.85
  C 169.73 64.55 167.33 61.10 161.21 58.86
  Q 108.59 39.68 55.92 20.60
  C 48.63 17.96 45.74 24.68 43.91 30.50
  Q 43.77 30.96 44.23 31.11
  C 53.49 34.16 48.97 46.39 40.02 42.79
  A 0.62 0.62 0.0 0 0 39.20 43.15
  L 34.91 55.17
  A 0.50 0.50 0.0 0 0 35.22 55.80
  C 44.28 58.85 40.20 70.95 30.97 67.52
  Q 30.48 67.34 30.29 67.84
  L 25.95 79.74
  Q 25.74 80.30 26.31 80.51
  C 32.65 82.80 33.35 91.20 26.50 92.76
  C 25.04 93.09 23.39 92.55 21.85 92.24
  Q 21.32 92.14 21.16 92.65
  C 19.09 98.93 16.62 105.05 24.93 108.08
  Q 77.94 127.42 131.01 146.59
  C 140.97 150.19 143.15 137.95 145.36 131.70
  Q 145.56 131.13 144.96 131.23
  Q 137.72 132.48 130.61 130.70
  A 1.36 1.35 -6.4 0 1 129.73 130.00
  L 125.68 121.78
  Q 125.46 121.33 124.98 121.46
  Q 115.80 123.89 106.48 121.98
  A 1.12 1.11 -7.1 0 1 105.70 121.38
  Z"
/>
<path fill="#73c759" d="
  M 106.48 121.98
  Q 115.80 123.89 124.98 121.46
  Q 125.46 121.33 125.68 121.78
  L 129.73 130.00
  A 1.36 1.35 -6.4 0 0 130.61 130.70
  Q 137.72 132.48 144.96 131.23
  Q 145.56 131.13 145.36 131.70
  C 143.15 137.95 140.97 150.19 131.01 146.59
  Q 77.94 127.42 24.93 108.08
  C 16.62 105.05 19.09 98.93 21.16 92.65
  Q 21.32 92.14 21.85 92.24
  C 23.39 92.55 25.04 93.09 26.50 92.76
  C 33.35 91.20 32.65 82.80 26.31 80.51
  Q 25.74 80.30 25.95 79.74
  L 30.29 67.84
  Q 30.48 67.34 30.97 67.52
  C 40.20 70.95 44.28 58.85 35.22 55.80
  A 0.50 0.50 0.0 0 1 34.91 55.17
  L 39.20 43.15
  A 0.62 0.62 0.0 0 1 40.02 42.79
  C 48.97 46.39 53.49 34.16 44.23 31.11
  Q 43.77 30.96 43.91 30.50
  C 45.74 24.68 48.63 17.96 55.92 20.60
  Q 108.59 39.68 161.21 58.86
  C 167.33 61.10 169.73 64.55 167.46 70.85
  Q 155.86 103.11 150.08 118.57
  C 149.04 121.38 139.87 122.04 137.38 121.99
  Q 136.86 121.98 136.61 121.52
  C 134.32 117.26 132.03 107.78 125.27 110.86
  Q 119.61 113.43 113.69 113.22
  A 1.87 1.84 -12.2 0 1 112.10 112.21
  C 110.00 108.03 107.98 99.33 101.41 102.04
  Q 95.92 104.31 89.62 104.54
  A 1.71 1.68 -13.9 0 1 88.05 103.61
  L 83.77 94.97
  Q 83.14 93.70 81.82 93.22
  L 64.45 86.85
  Q 63.90 86.65 63.72 86.10
  C 59.20 72.35 47.55 84.07 57.61 93.56
  C 61.35 97.09 70.20 99.42 75.66 101.37
  Q 76.17 101.55 76.41 102.04
  L 81.23 111.91
  A 2.80 2.78 -6.7 0 0 83.15 113.42
  Q 92.03 115.31 100.74 112.70
  A 0.67 0.66 68.3 0 1 101.51 113.04
  L 105.70 121.38
  A 1.12 1.11 -7.1 0 0 106.48 121.98
  Z
  M 93.64 57.80
  C 99.55 64.31 106.05 55.74 101.58 51.92
  Q 86.45 38.99 64.82 37.73
  C 56.54 37.25 56.67 48.49 64.68 47.48
  A 0.45 0.44 -80.4 0 1 65.13 48.12
  C 56.17 66.35 85.68 79.14 92.86 57.96
  A 0.46 0.46 0.0 0 1 93.64 57.80
  Z
  M 154.19 81.69
  C 155.58 74.56 151.43 65.10 143.48 63.51
  C 138.10 62.43 135.51 69.55 140.09 72.44
  Q 143.16 74.38 143.46 74.75
  C 145.83 77.67 144.12 79.63 144.17 82.46
  C 144.29 88.53 152.85 88.64 154.19 81.69
  Z"
/>
<path fill="#000000" d="
  M 92.86 57.96
  C 85.68 79.14 56.17 66.35 65.13 48.12
  A 0.45 0.44 -80.4 0 0 64.68 47.48
  C 56.67 48.49 56.54 37.25 64.82 37.73
  Q 86.45 38.99 101.58 51.92
  C 106.05 55.74 99.55 64.31 93.64 57.80
  A 0.46 0.46 0.0 0 0 92.86 57.96
  Z
  M 83.5536 54.8886
  A 5.03 3.98 20.1 0 0 80.1978 49.4224
  A 5.03 3.98 20.1 0 0 74.1064 51.4314
  A 5.03 3.98 20.1 0 0 77.4622 56.8976
  A 5.03 3.98 20.1 0 0 83.5536 54.8886
  Z"
/>
<ellipse fill="#fefefe" cx="0.00" cy="0.00" transform="translate(78.83,53.16) rotate(20.1)" rx="5.03" ry="3.98"/>
<path fill="#000000" d="
  M 143.48 63.51
  C 151.43 65.10 155.58 74.56 154.19 81.69
  C 152.85 88.64 144.29 88.53 144.17 82.46
  C 144.12 79.63 145.83 77.67 143.46 74.75
  Q 143.16 74.38 140.09 72.44
  C 135.51 69.55 138.10 62.43 143.48 63.51
  Z"
/>
</svg>
