<svg t="1690255365187" class="icon" viewBox="0 0 1024 1024" version="1.1" xmlns="http://www.w3.org/2000/svg" p-id="5566" width="200" height="200"><path d="M512 512m-480.292571 0a480.292571 480.292571 0 1 0 960.585142 0 480.292571 480.292571 0 1 0-960.585142 0Z" fill="#cdcdcd" p-id="5567" data-spm-anchor-id="a313x.7781069.0.i6" class="selected"></path><path d="M510.976 690.688l-68.169143-246.966857c-4.900571-34.121143-7.899429-52.224-10.130286-73.545143-0.365714-19.090286 10.130286-28.854857 64.365715-28.854857V307.2H273.115429v34.121143c42.422857 0 55.332571 6.582857 61.952 28.854857L435.2 785.078857h96l196.352-414.902857c13.494857-20.114286 20.297143-26.514286 57.526857-28.854857V307.2h-160v34.121143c24.832 0 32.877714 9.142857 32.036572 28.854857-9.398857 22.308571-26.514286 46.592-39.643429 73.545143l-106.496 246.966857z" fill="#FFFFFF" p-id="5568"></path></svg>